<?xml version="1.0" encoding="utf-8" standalone="no"?>
<!DOCTYPE svg PUBLIC "-//W3C//DTD SVG 1.1//EN"
  "http://www.w3.org/Graphics/SVG/1.1/DTD/svg11.dtd">
<svg xmlns:xlink="http://www.w3.org/1999/xlink" width="864pt" height="273.6pt" viewBox="0 0 864 273.6" xmlns="http://www.w3.org/2000/svg" version="1.1">
 <metadata>
  <rdf:RDF xmlns:dc="http://purl.org/dc/elements/1.1/" xmlns:cc="http://creativecommons.org/ns#" xmlns:rdf="http://www.w3.org/1999/02/22-rdf-syntax-ns#">
   <cc:Work>
    <dc:type rdf:resource="http://purl.org/dc/dcmitype/StillImage"/>
    <dc:date>2026-09-03T15:44:49.093479</dc:date>
    <dc:format>image/svg+xml</dc:format>
    <dc:creator>
     <cc:Agent>
      <dc:title>Matplotlib v3.11.0, https://matplotlib.org/</dc:title>
     </cc:Agent>
    </dc:creator>
   </cc:Work>
  </rdf:RDF>
 </metadata>
 <defs>
  <style type="text/css">*{stroke-linejoin: round; stroke-linecap: butt}</style>
 </defs>
 <g id="figure_1">
  <g id="patch_1">
   <path d="M 0 273.6 
L 864 273.6 
L 864 0 
L 0 0 
z
" style="fill: #ffffff"/>
  </g>
  <g id="axes_1">
   <g id="patch_2">
    <path d="M 46.939609 231.680508 
L 306.15974 231.680508 
L 306.15974 48.359531 
L 46.939609 48.359531 
z
" style="fill: #ffffff"/>
   </g>
   <g id="FillBetweenPolyCollection_1">
    <defs>
     <path id="ma19c97ef2d" d="M 58.722343 -85.532144 
L 58.722343 -74.316043 
L 88.179176 -77.80417 
L 117.636009 -79.336904 
L 147.092842 -87.181593 
L 176.549674 -91.60508 
L 206.006507 -97.292104 
L 235.46334 -112.748051 
L 264.920173 -124.897726 
L 294.377006 -145.151279 
L 294.377006 -166.216669 
L 294.377006 -166.216669 
L 264.920173 -145.004782 
L 235.46334 -126.305339 
L 206.006507 -111.041205 
L 176.549674 -103.567879 
L 147.092842 -94.839902 
L 117.636009 -88.892132 
L 88.179176 -89.091454 
L 58.722343 -85.532144 
z
" style="stroke: #6366f1; stroke-opacity: 0.15"/>
    </defs>
    <g clip-path="url(#p24f140ee8b)">
     <use xlink:href="#ma19c97ef2d" x="0" y="273.6" style="fill: #6366f1; fill-opacity: 0.15; stroke: #6366f1; stroke-opacity: 0.15"/>
    </g>
   </g>
   <g id="FillBetweenPolyCollection_2">
    <defs>
     <path id="mfeaa04c067" d="M 58.722343 -108.716065 
L 58.722343 -90.503788 
L 88.179176 -92.281595 
L 117.636009 -84.277748 
L 147.092842 -99.402597 
L 176.549674 -102.668086 
L 206.006507 -112.422552 
L 235.46334 -126.636004 
L 264.920173 -141.191488 
L 294.377006 -157.3414 
L 294.377006 -178.168924 
L 294.377006 -178.168924 
L 264.920173 -159.294393 
L 235.46334 -138.878227 
L 206.006507 -125.106251 
L 176.549674 -115.306358 
L 147.092842 -110.06006 
L 117.636009 -96.461566 
L 88.179176 -109.217216 
L 58.722343 -108.716065 
z
" style="stroke: #0ea5e9; stroke-opacity: 0.15"/>
    </defs>
    <g clip-path="url(#p24f140ee8b)">
     <use xlink:href="#mfeaa04c067" x="0" y="273.6" style="fill: #0ea5e9; fill-opacity: 0.15; stroke: #0ea5e9; stroke-opacity: 0.15"/>
    </g>
   </g>
   <g id="matplotlib.axis_1">
    <g id="xtick_1">
     <g id="line2d_1">
      <defs>
       <path id="m68485f2201" d="M 0 0 
L 0 3.5 
" style="stroke: #000000; stroke-width: 0.8"/>
      </defs>
      <g>
       <use xlink:href="#m68485f2201" x="58.722343" y="231.680508" style="stroke: #000000; stroke-width: 0.8"/>
      </g>
     </g>
     <g id="text_1">
      <!-- 1 -->
      <g transform="translate(55.941874 245.960781) scale(0.1 -0.1)">
       <defs>
        <path id="ArialUnicodeMS-14" d="M 2400 0 
L 1838 0 
L 1838 3584 
Q 1416 3184 709 2906 
L 709 3450 
Q 1681 3916 2034 4603 
L 2400 4603 
L 2400 0 
z
" transform="scale(0.015625)"/>
       </defs>
       <use xlink:href="#ArialUnicodeMS-14"/>
      </g>
     </g>
    </g>
    <g id="xtick_2">
     <g id="line2d_2">
      <g>
       <use xlink:href="#m68485f2201" x="117.636009" y="231.680508" style="stroke: #000000; stroke-width: 0.8"/>
      </g>
     </g>
     <g id="text_2">
      <!-- 2 -->
      <g transform="translate(114.85554 245.960781) scale(0.1 -0.1)">
       <defs>
        <path id="ArialUnicodeMS-15" d="M 3231 0 
L 197 0 
Q 197 388 467 784 
Q 738 1181 1478 1778 
Q 1931 2141 2287 2539 
Q 2644 2938 2644 3341 
Q 2644 3688 2398 3914 
Q 2153 4141 1778 4141 
Q 1400 4141 1144 3908 
Q 888 3675 884 3213 
L 306 3278 
Q 359 3922 764 4262 
Q 1169 4603 1791 4603 
Q 2466 4603 2842 4229 
Q 3219 3856 3219 3328 
Q 3219 2888 2901 2436 
Q 2584 1984 1638 1228 
Q 1141 831 978 544 
L 3231 544 
L 3231 0 
z
" transform="scale(0.015625)"/>
       </defs>
       <use xlink:href="#ArialUnicodeMS-15"/>
      </g>
     </g>
    </g>
    <g id="xtick_3">
     <g id="line2d_3">
      <g>
       <use xlink:href="#m68485f2201" x="176.549674" y="231.680508" style="stroke: #000000; stroke-width: 0.8"/>
      </g>
     </g>
     <g id="text_3">
      <!-- 3 -->
      <g transform="translate(173.769206 245.960781) scale(0.1 -0.1)">
       <defs>
        <path id="ArialUnicodeMS-16" d="M 2425 2478 
Q 2850 2397 3067 2067 
Q 3284 1738 3284 1350 
Q 3284 725 2829 323 
Q 2375 -78 1741 -78 
Q 1134 -78 740 275 
Q 347 628 281 1209 
L 844 1288 
Q 928 834 1151 609 
Q 1375 384 1741 384 
Q 2134 384 2407 661 
Q 2681 938 2681 1338 
Q 2681 1722 2432 1975 
Q 2184 2228 1784 2228 
Q 1622 2228 1388 2169 
L 1453 2663 
Q 1678 2663 1809 2684 
Q 1941 2706 2103 2790 
Q 2266 2875 2372 3033 
Q 2478 3191 2478 3425 
Q 2478 3766 2251 3953 
Q 2025 4141 1728 4141 
Q 1388 4141 1173 3925 
Q 959 3709 903 3309 
L 341 3413 
Q 450 4009 823 4306 
Q 1197 4603 1716 4603 
Q 2288 4603 2670 4258 
Q 3053 3913 3053 3413 
Q 3053 2772 2425 2491 
L 2425 2478 
z
" transform="scale(0.015625)"/>
       </defs>
       <use xlink:href="#ArialUnicodeMS-16"/>
      </g>
     </g>
    </g>
    <g id="xtick_4">
     <g id="line2d_4">
      <g>
       <use xlink:href="#m68485f2201" x="235.46334" y="231.680508" style="stroke: #000000; stroke-width: 0.8"/>
      </g>
     </g>
     <g id="text_4">
      <!-- 4 -->
      <g transform="translate(232.682872 245.960781) scale(0.1 -0.1)">
       <defs>
        <path id="ArialUnicodeMS-17" d="M 3263 1094 
L 2644 1094 
L 2644 0 
L 2081 0 
L 2081 1094 
L 97 1094 
L 97 1613 
L 2181 4581 
L 2644 4581 
L 2644 1613 
L 3263 1613 
L 3263 1094 
z
M 2081 1613 
L 2081 3681 
L 2069 3681 
L 647 1613 
L 2081 1613 
z
" transform="scale(0.015625)"/>
       </defs>
       <use xlink:href="#ArialUnicodeMS-17"/>
      </g>
     </g>
    </g>
    <g id="xtick_5">
     <g id="line2d_5">
      <g>
       <use xlink:href="#m68485f2201" x="294.377006" y="231.680508" style="stroke: #000000; stroke-width: 0.8"/>
      </g>
     </g>
     <g id="text_5">
      <!-- 5 -->
      <g transform="translate(291.596538 245.960781) scale(0.1 -0.1)">
       <defs>
        <path id="ArialUnicodeMS-18" d="M 1013 2753 
Q 1431 3041 1881 3041 
Q 2453 3041 2878 2636 
Q 3303 2231 3303 1556 
Q 3303 875 2872 398 
Q 2441 -78 1741 -78 
Q 1169 -78 750 245 
Q 331 569 269 1203 
L 856 1247 
Q 928 813 1162 598 
Q 1397 384 1741 384 
Q 2169 384 2434 707 
Q 2700 1031 2700 1503 
Q 2700 1984 2428 2262 
Q 2156 2541 1728 2541 
Q 1188 2541 897 2100 
L 366 2163 
L 813 4519 
L 3084 4519 
L 3084 3975 
L 1259 3975 
L 1013 2753 
z
" transform="scale(0.015625)"/>
       </defs>
       <use xlink:href="#ArialUnicodeMS-18"/>
      </g>
     </g>
    </g>
    <g id="text_6">
     <!-- CASE 预设等级 -->
     <g transform="translate(141.544206 260.440078) scale(0.1 -0.1)">
      <defs>
       <path id="ArialUnicodeMS-26" d="M 4372 1453 
Q 4172 681 3673 301 
Q 3175 -78 2478 -78 
Q 1353 -78 839 626 
Q 325 1331 325 2322 
Q 325 3419 929 4039 
Q 1534 4659 2484 4659 
Q 3153 4659 3628 4318 
Q 4103 3978 4294 3322 
L 3700 3181 
Q 3550 3659 3244 3900 
Q 2938 4141 2478 4141 
Q 1728 4141 1340 3648 
Q 953 3156 953 2328 
Q 953 1372 1361 906 
Q 1769 441 2425 441 
Q 2963 441 3298 731 
Q 3634 1022 3769 1606 
L 4372 1453 
z
" transform="scale(0.015625)"/>
       <path id="ArialUnicodeMS-24" d="M 4275 0 
L 3591 0 
L 3053 1394 
L 1141 1394 
L 634 0 
L -6 0 
L 1753 4581 
L 2406 4581 
L 4275 0 
z
M 2869 1875 
Q 2306 3363 2234 3564 
Q 2163 3766 2075 4103 
L 2059 4103 
Q 1972 3641 1825 3247 
L 1313 1875 
L 2869 1875 
z
" transform="scale(0.015625)"/>
       <path id="ArialUnicodeMS-36" d="M 3213 3238 
Q 3175 3675 2897 3895 
Q 2619 4116 2100 4116 
Q 1631 4116 1337 3941 
Q 1044 3766 1044 3431 
Q 1044 3134 1270 2989 
Q 1497 2844 2138 2700 
Q 2706 2575 3065 2444 
Q 3425 2313 3681 2036 
Q 3938 1759 3938 1294 
Q 3938 703 3467 312 
Q 2997 -78 2241 -78 
Q 1275 -78 795 353 
Q 316 784 288 1472 
L 863 1522 
Q 903 972 1287 720 
Q 1672 469 2216 469 
Q 2725 469 3039 678 
Q 3353 888 3353 1247 
Q 3353 1622 3025 1794 
Q 2697 1966 1923 2133 
Q 1150 2300 809 2603 
Q 469 2906 469 3391 
Q 469 3941 900 4300 
Q 1331 4659 2075 4659 
Q 2838 4659 3302 4301 
Q 3766 3944 3794 3284 
L 3213 3238 
z
" transform="scale(0.015625)"/>
       <path id="ArialUnicodeMS-28" d="M 3928 0 
L 506 0 
L 506 4581 
L 3822 4581 
L 3822 4038 
L 1113 4038 
L 1113 2638 
L 3647 2638 
L 3647 2094 
L 1113 2094 
L 1113 544 
L 3928 544 
L 3928 0 
z
" transform="scale(0.015625)"/>
       <path id="ArialUnicodeMS-3" transform="scale(0.015625)"/>
       <path id="ArialUnicodeMS-6b13" d="M 5888 4519 
L 4538 4519 
Q 4450 4066 4306 3828 
L 5594 3828 
L 5594 872 
L 5106 872 
L 5106 3359 
L 3431 3359 
L 3431 825 
L 2944 825 
L 2944 3828 
L 3725 3828 
Q 3906 4113 4031 4519 
L 2700 4519 
L 2700 4984 
L 5888 4984 
L 5888 4519 
z
M 2747 2822 
Q 2747 2788 2650 2513 
Q 2553 2238 2406 1953 
Q 2288 1997 1947 2175 
Q 2159 2513 2241 2759 
L 1728 2759 
L 1728 63 
Q 1728 -141 1609 -275 
Q 1491 -409 1306 -409 
L 703 -409 
L 519 109 
L 1106 84 
Q 1156 84 1198 134 
Q 1241 184 1241 238 
L 1241 2759 
L 319 2759 
L 319 3225 
L 1619 3225 
Q 1413 3463 594 3794 
L 916 4153 
Q 1138 4094 1281 4006 
L 1747 4447 
L 391 4447 
L 391 4916 
L 2484 4916 
L 2484 4494 
Q 2016 3963 1741 3750 
Q 1981 3588 2181 3391 
L 2053 3225 
L 2747 3225 
L 2747 2822 
z
M 4494 1747 
Q 4494 1088 4069 481 
Q 3644 -125 2688 -409 
L 2369 38 
Q 4003 384 4019 1931 
L 4031 3122 
L 4494 3053 
L 4494 1747 
z
M 5991 -13 
L 5663 -416 
Q 5234 169 4325 594 
L 4609 966 
Q 5506 559 5991 -13 
z
" transform="scale(0.015625)"/>
       <path id="ArialUnicodeMS-5e4d" d="M 2175 4197 
L 1772 3884 
Q 1528 4397 959 4856 
L 1300 5147 
Q 1828 4794 2175 4197 
z
M 5844 3084 
L 5038 3084 
Q 4822 3084 4692 3223 
Q 4563 3363 4563 3566 
L 4563 4609 
L 3541 4609 
L 3541 4013 
Q 3541 3609 3261 3251 
Q 2981 2894 2559 2719 
L 2216 3122 
Q 2528 3228 2731 3426 
Q 2934 3625 2993 3794 
Q 3053 3963 3053 4250 
L 3053 5075 
L 5050 5075 
L 5050 3628 
Q 5050 3553 5153 3553 
L 5844 3553 
L 5844 3084 
z
M 2644 800 
L 1453 128 
L 1172 538 
Q 1253 681 1253 825 
L 1253 2894 
L 347 2894 
L 347 3359 
L 1741 3359 
L 1741 838 
L 2644 1325 
L 2644 800 
z
M 6053 116 
L 5703 -347 
Q 4728 38 4078 556 
Q 3303 16 2291 -347 
L 2028 72 
Q 3219 494 3713 884 
Q 3328 1278 2938 2209 
L 2638 2209 
L 2638 2675 
L 5388 2675 
Q 5238 1628 4422 897 
Q 5016 425 6053 116 
z
M 4756 2209 
L 3463 2209 
Q 3763 1513 4072 1209 
Q 4538 1675 4756 2209 
z
" transform="scale(0.015625)"/>
       <path id="ArialUnicodeMS-4dd8" d="M 5978 2022 
L 453 2022 
L 453 2491 
L 2963 2491 
L 2963 2956 
L 1241 2956 
L 1241 3425 
L 2963 3425 
L 2963 3891 
L 3406 3891 
L 3406 3903 
L 3175 4072 
Q 3672 4559 3866 5363 
L 4319 5209 
Q 4300 5084 4191 4788 
L 5931 4788 
L 5931 4319 
L 4978 4319 
Q 5216 4075 5331 3878 
L 4872 3647 
Q 4728 4000 4391 4319 
L 3975 4319 
Q 3828 4044 3572 3775 
L 3469 3847 
L 3469 3425 
L 5234 3425 
L 5234 2956 
L 3469 2956 
L 3469 2491 
L 5978 2491 
L 5978 2022 
z
M 3309 4294 
L 2444 4294 
Q 2634 4106 2778 3841 
L 2309 3622 
Q 2231 3881 1856 4294 
L 1522 4294 
Q 1281 3872 788 3488 
L 416 3788 
Q 1263 4450 1447 5350 
L 1919 5197 
Q 1847 4928 1747 4763 
L 3309 4763 
L 3309 4294 
z
M 5838 1106 
L 4684 1106 
L 4684 63 
Q 4684 -69 4553 -219 
Q 4422 -369 4214 -403 
Q 4006 -438 3475 -428 
L 3297 78 
Q 3803 44 3972 44 
Q 4178 44 4178 206 
L 4178 1106 
L 647 1106 
L 647 1575 
L 4178 1575 
L 4178 1991 
L 4684 1991 
L 4684 1575 
L 5838 1575 
L 5838 1106 
z
M 3066 416 
L 2753 6 
Q 2194 503 1241 697 
L 1509 1088 
Q 2469 906 3066 416 
z
" transform="scale(0.015625)"/>
       <path id="ArialUnicodeMS-5136" d="M 2584 1791 
Q 1375 1497 653 1275 
L 422 1703 
Q 1069 2350 1338 2766 
Q 966 2675 641 2572 
L 397 3009 
Q 897 3831 1472 5300 
L 1906 5094 
Q 1350 3816 978 3150 
L 1650 3291 
Q 1850 3588 2081 4056 
L 2528 3853 
Q 1894 2559 1203 1919 
L 1216 1906 
L 2584 2278 
L 2584 1791 
z
M 6022 -78 
L 5650 -453 
Q 4953 -153 4447 506 
Q 3813 -178 3334 -434 
L 3003 -25 
Q 3594 288 4128 909 
Q 3591 1684 3397 2259 
L 3384 2259 
Q 3384 1213 3157 589 
Q 2931 -34 2731 -269 
L 2591 -434 
L 2131 -134 
Q 2438 216 2622 620 
Q 2806 1025 2856 1537 
Q 2906 2050 2906 3003 
L 2906 4531 
L 2375 4531 
L 2375 4997 
L 5319 4997 
Q 5225 4247 4781 3378 
L 5606 3378 
Q 5328 1650 4769 897 
Q 5147 353 6022 -78 
z
M 5050 2913 
L 4191 2913 
L 4191 3328 
Q 4513 3784 4728 4531 
L 3391 4531 
L 3391 3681 
Q 3484 3213 3795 2503 
Q 4106 1794 4453 1300 
Q 4828 1866 5050 2913 
z
M 2584 738 
L 678 72 
L 434 513 
Q 1781 956 2584 1209 
L 2584 738 
z
" transform="scale(0.015625)"/>
      </defs>
      <use xlink:href="#ArialUnicodeMS-26"/>
      <use xlink:href="#ArialUnicodeMS-24" transform="translate(72.21875 0)"/>
      <use xlink:href="#ArialUnicodeMS-36" transform="translate(138.921875 0)"/>
      <use xlink:href="#ArialUnicodeMS-28" transform="translate(205.625 0)"/>
      <use xlink:href="#ArialUnicodeMS-3" transform="translate(272.328125 0)"/>
      <use xlink:href="#ArialUnicodeMS-6b13" transform="translate(300.109375 0)"/>
      <use xlink:href="#ArialUnicodeMS-5e4d" transform="translate(400.109375 0)"/>
      <use xlink:href="#ArialUnicodeMS-4dd8" transform="translate(500.109375 0)"/>
      <use xlink:href="#ArialUnicodeMS-5136" transform="translate(600.109375 0)"/>
     </g>
    </g>
   </g>
   <g id="matplotlib.axis_2">
    <g id="ytick_1">
     <g id="line2d_6">
      <defs>
       <path id="m27e7ffa50e" d="M 0 0 
L -3.5 0 
" style="stroke: #000000; stroke-width: 0.8"/>
      </defs>
      <g>
       <use xlink:href="#m27e7ffa50e" x="46.939609" y="223.347736" style="stroke: #000000; stroke-width: 0.8"/>
      </g>
     </g>
     <g id="text_7">
      <!-- 1.0 -->
      <g transform="translate(26.039609 226.987873) scale(0.1 -0.1)">
       <defs>
        <path id="ArialUnicodeMS-11" d="M 1209 0 
L 569 0 
L 569 641 
L 1209 641 
L 1209 0 
z
" transform="scale(0.015625)"/>
        <path id="ArialUnicodeMS-13" d="M 1778 4603 
Q 3272 4603 3272 2259 
Q 3272 1075 2886 498 
Q 2500 -78 1778 -78 
Q 288 -78 288 2259 
Q 288 3444 673 4023 
Q 1059 4603 1778 4603 
z
M 1778 384 
Q 2231 384 2462 823 
Q 2694 1263 2694 2259 
Q 2694 2953 2592 3351 
Q 2491 3750 2286 3945 
Q 2081 4141 1772 4141 
Q 1319 4141 1091 3694 
Q 863 3247 863 2259 
Q 863 1575 966 1175 
Q 1069 775 1272 579 
Q 1475 384 1778 384 
z
" transform="scale(0.015625)"/>
       </defs>
       <use xlink:href="#ArialUnicodeMS-14"/>
       <use xlink:href="#ArialUnicodeMS-11" transform="translate(55.609375 0)"/>
       <use xlink:href="#ArialUnicodeMS-13" transform="translate(83.390625 0)"/>
      </g>
     </g>
    </g>
    <g id="ytick_2">
     <g id="line2d_7">
      <g>
       <use xlink:href="#m27e7ffa50e" x="46.939609" y="202.515807" style="stroke: #000000; stroke-width: 0.8"/>
      </g>
     </g>
     <g id="text_8">
      <!-- 1.5 -->
      <g transform="translate(26.039609 206.155944) scale(0.1 -0.1)">
       <use xlink:href="#ArialUnicodeMS-14"/>
       <use xlink:href="#ArialUnicodeMS-11" transform="translate(55.609375 0)"/>
       <use xlink:href="#ArialUnicodeMS-18" transform="translate(83.390625 0)"/>
      </g>
     </g>
    </g>
    <g id="ytick_3">
     <g id="line2d_8">
      <g>
       <use xlink:href="#m27e7ffa50e" x="46.939609" y="181.683878" style="stroke: #000000; stroke-width: 0.8"/>
      </g>
     </g>
     <g id="text_9">
      <!-- 2.0 -->
      <g transform="translate(26.039609 185.324015) scale(0.1 -0.1)">
       <use xlink:href="#ArialUnicodeMS-15"/>
       <use xlink:href="#ArialUnicodeMS-11" transform="translate(55.609375 0)"/>
       <use xlink:href="#ArialUnicodeMS-13" transform="translate(83.390625 0)"/>
      </g>
     </g>
    </g>
    <g id="ytick_4">
     <g id="line2d_9">
      <g>
       <use xlink:href="#m27e7ffa50e" x="46.939609" y="160.851949" style="stroke: #000000; stroke-width: 0.8"/>
      </g>
     </g>
     <g id="text_10">
      <!-- 2.5 -->
      <g transform="translate(26.039609 164.492085) scale(0.1 -0.1)">
       <use xlink:href="#ArialUnicodeMS-15"/>
       <use xlink:href="#ArialUnicodeMS-11" transform="translate(55.609375 0)"/>
       <use xlink:href="#ArialUnicodeMS-18" transform="translate(83.390625 0)"/>
      </g>
     </g>
    </g>
    <g id="ytick_5">
     <g id="line2d_10">
      <g>
       <use xlink:href="#m27e7ffa50e" x="46.939609" y="140.02002" style="stroke: #000000; stroke-width: 0.8"/>
      </g>
     </g>
     <g id="text_11">
      <!-- 3.0 -->
      <g transform="translate(26.039609 143.660156) scale(0.1 -0.1)">
       <use xlink:href="#ArialUnicodeMS-16"/>
       <use xlink:href="#ArialUnicodeMS-11" transform="translate(55.609375 0)"/>
       <use xlink:href="#ArialUnicodeMS-13" transform="translate(83.390625 0)"/>
      </g>
     </g>
    </g>
    <g id="ytick_6">
     <g id="line2d_11">
      <g>
       <use xlink:href="#m27e7ffa50e" x="46.939609" y="119.18809" style="stroke: #000000; stroke-width: 0.8"/>
      </g>
     </g>
     <g id="text_12">
      <!-- 3.5 -->
      <g transform="translate(26.039609 122.828227) scale(0.1 -0.1)">
       <use xlink:href="#ArialUnicodeMS-16"/>
       <use xlink:href="#ArialUnicodeMS-11" transform="translate(55.609375 0)"/>
       <use xlink:href="#ArialUnicodeMS-18" transform="translate(83.390625 0)"/>
      </g>
     </g>
    </g>
    <g id="ytick_7">
     <g id="line2d_12">
      <g>
       <use xlink:href="#m27e7ffa50e" x="46.939609" y="98.356161" style="stroke: #000000; stroke-width: 0.8"/>
      </g>
     </g>
     <g id="text_13">
      <!-- 4.0 -->
      <g transform="translate(26.039609 101.996298) scale(0.1 -0.1)">
       <use xlink:href="#ArialUnicodeMS-17"/>
       <use xlink:href="#ArialUnicodeMS-11" transform="translate(55.609375 0)"/>
       <use xlink:href="#ArialUnicodeMS-13" transform="translate(83.390625 0)"/>
      </g>
     </g>
    </g>
    <g id="ytick_8">
     <g id="line2d_13">
      <g>
       <use xlink:href="#m27e7ffa50e" x="46.939609" y="77.524232" style="stroke: #000000; stroke-width: 0.8"/>
      </g>
     </g>
     <g id="text_14">
      <!-- 4.5 -->
      <g transform="translate(26.039609 81.164369) scale(0.1 -0.1)">
       <use xlink:href="#ArialUnicodeMS-17"/>
       <use xlink:href="#ArialUnicodeMS-11" transform="translate(55.609375 0)"/>
       <use xlink:href="#ArialUnicodeMS-18" transform="translate(83.390625 0)"/>
      </g>
     </g>
    </g>
    <g id="ytick_9">
     <g id="line2d_14">
      <g>
       <use xlink:href="#m27e7ffa50e" x="46.939609" y="56.692303" style="stroke: #000000; stroke-width: 0.8"/>
      </g>
     </g>
     <g id="text_15">
      <!-- 5.0 -->
      <g transform="translate(26.039609 60.33244) scale(0.1 -0.1)">
       <use xlink:href="#ArialUnicodeMS-18"/>
       <use xlink:href="#ArialUnicodeMS-11" transform="translate(55.609375 0)"/>
       <use xlink:href="#ArialUnicodeMS-13" transform="translate(83.390625 0)"/>
      </g>
     </g>
    </g>
    <g id="text_16">
     <!-- 平均预测分 -->
     <g transform="translate(19.94 165.02002) rotate(-90) scale(0.1 -0.1)">
      <defs>
       <path id="ArialUnicodeMS-3102" d="M 5888 1875 
L 3419 1875 
L 3419 -447 
L 2931 -447 
L 2931 1875 
L 453 1875 
L 453 2344 
L 2931 2344 
L 2931 4569 
L 856 4569 
L 856 5038 
L 5453 5038 
L 5453 4569 
L 3419 4569 
L 3419 2344 
L 5888 2344 
L 5888 1875 
z
M 5241 4197 
Q 4981 3381 4134 2522 
L 3700 2803 
Q 4584 3606 4819 4422 
L 5241 4197 
z
M 2528 2753 
L 2081 2509 
Q 1700 3606 953 4153 
L 1428 4384 
Q 2109 3784 2528 2753 
z
" transform="scale(0.015625)"/>
       <path id="ArialUnicodeMS-29d6" d="M 5797 4459 
Q 5772 1716 5730 978 
Q 5688 241 5458 -81 
Q 5228 -403 4744 -403 
Q 4606 -403 4006 -306 
L 3847 250 
Q 4413 128 4788 128 
Q 5022 128 5133 340 
Q 5244 553 5283 1968 
Q 5322 3384 5306 3994 
L 3347 3994 
Q 3056 3181 2559 2650 
L 2156 2944 
Q 2253 3025 2344 3128 
L 1728 3128 
L 1728 1441 
L 2541 1766 
L 2541 1259 
L 641 538 
L 319 978 
L 1241 1288 
L 1241 3128 
L 488 3128 
L 488 3597 
L 1241 3597 
L 1241 5100 
L 1728 5100 
L 1728 3597 
L 2413 3597 
L 2413 3231 
Q 3006 4097 3194 5319 
L 3675 5166 
Q 3572 4644 3494 4459 
L 5797 4459 
z
M 4813 2566 
L 2888 2566 
L 2888 3041 
L 4813 3041 
L 4813 2566 
z
M 4959 1900 
L 4959 1409 
Q 4266 1156 2706 709 
L 2431 1153 
Q 4391 1697 4959 1900 
z
" transform="scale(0.015625)"/>
       <path id="ArialUnicodeMS-3fda" d="M 5631 31 
Q 5631 -159 5501 -270 
Q 5372 -381 5247 -378 
L 4647 -366 
L 4475 128 
L 5019 72 
Q 5147 72 5147 197 
L 5147 5300 
L 5631 5300 
L 5631 31 
z
M 1766 4422 
L 1434 4097 
Q 1069 4584 469 4928 
L 750 5234 
Q 1344 4934 1766 4422 
z
M 3859 1209 
L 3406 1209 
L 3406 4469 
L 2316 4469 
L 2316 1209 
L 1863 1209 
L 1863 4909 
L 3859 4909 
L 3859 1209 
z
M 4697 1031 
L 4275 1031 
L 4275 4378 
L 4697 4378 
L 4697 1031 
z
M 3078 2113 
Q 3078 1225 2779 669 
Q 2481 113 1728 -403 
L 1416 -6 
Q 2516 656 2591 1644 
L 2625 2059 
L 2625 4013 
L 3078 4013 
L 3078 2113 
z
M 1563 3016 
L 1228 2681 
Q 922 3172 325 3541 
L 603 3847 
Q 1181 3534 1563 3016 
z
M 1772 2028 
Q 1516 603 703 -306 
L 306 13 
Q 1172 1047 1394 2228 
L 1772 2028 
z
M 4409 -78 
L 4013 -331 
Q 3625 397 3053 878 
L 3353 1141 
Q 3966 663 4409 -78 
z
" transform="scale(0.015625)"/>
       <path id="ArialUnicodeMS-2495" d="M 5991 3003 
L 5684 2553 
Q 4856 3041 4451 3534 
Q 4047 4028 3781 4831 
L 4319 4984 
Q 4375 4356 4829 3825 
Q 5284 3294 5991 3003 
z
M 2613 4697 
Q 2169 3484 800 2547 
L 416 2919 
Q 1731 3741 2188 4934 
L 2613 4697 
z
M 4872 2931 
Q 4844 1956 4730 1092 
Q 4616 228 4430 7 
Q 4244 -213 3847 -213 
Q 3469 -213 2894 -78 
L 2747 481 
Q 3503 269 3834 269 
Q 4013 269 4128 639 
Q 4244 1009 4341 2463 
L 3138 2463 
Q 2869 263 831 -441 
L 525 -31 
Q 2372 478 2631 2463 
L 1556 2463 
L 1556 2931 
L 4872 2931 
z
" transform="scale(0.015625)"/>
      </defs>
      <use xlink:href="#ArialUnicodeMS-3102"/>
      <use xlink:href="#ArialUnicodeMS-29d6" transform="translate(100 0)"/>
      <use xlink:href="#ArialUnicodeMS-6b13" transform="translate(200 0)"/>
      <use xlink:href="#ArialUnicodeMS-3fda" transform="translate(300 0)"/>
      <use xlink:href="#ArialUnicodeMS-2495" transform="translate(400 0)"/>
     </g>
    </g>
   </g>
   <g id="line2d_15">
    <path d="M 58.722343 193.488638 
L 88.179176 190.01665 
L 117.636009 189.322252 
L 147.092842 182.378275 
L 176.549674 176.128697 
L 206.006507 169.531919 
L 235.46334 153.907972 
L 264.920173 138.284025 
L 294.377006 117.104897 
" clip-path="url(#p24f140ee8b)" style="fill: none; stroke: #6366f1; stroke-width: 1.8; stroke-linecap: square"/>
    <defs>
     <path id="m6a4feb9fec" d="M 0 2 
C 0.530406 2 1.03916 1.789267 1.414214 1.414214 
C 1.789267 1.03916 2 0.530406 2 0 
C 2 -0.530406 1.789267 -1.03916 1.414214 -1.414214 
C 1.03916 -1.789267 0.530406 -2 0 -2 
C -0.530406 -2 -1.03916 -1.789267 -1.414214 -1.414214 
C -1.789267 -1.03916 -2 -0.530406 -2 0 
C -2 0.530406 -1.789267 1.03916 -1.414214 1.414214 
C -1.03916 1.789267 -0.530406 2 0 2 
z
" style="stroke: #6366f1"/>
    </defs>
    <g clip-path="url(#p24f140ee8b)">
     <use xlink:href="#m6a4feb9fec" x="58.722343" y="193.488638" style="fill: #6366f1; stroke: #6366f1"/>
     <use xlink:href="#m6a4feb9fec" x="88.179176" y="190.01665" style="fill: #6366f1; stroke: #6366f1"/>
     <use xlink:href="#m6a4feb9fec" x="117.636009" y="189.322252" style="fill: #6366f1; stroke: #6366f1"/>
     <use xlink:href="#m6a4feb9fec" x="147.092842" y="182.378275" style="fill: #6366f1; stroke: #6366f1"/>
     <use xlink:href="#m6a4feb9fec" x="176.549674" y="176.128697" style="fill: #6366f1; stroke: #6366f1"/>
     <use xlink:href="#m6a4feb9fec" x="206.006507" y="169.531919" style="fill: #6366f1; stroke: #6366f1"/>
     <use xlink:href="#m6a4feb9fec" x="235.46334" y="153.907972" style="fill: #6366f1; stroke: #6366f1"/>
     <use xlink:href="#m6a4feb9fec" x="264.920173" y="138.284025" style="fill: #6366f1; stroke: #6366f1"/>
     <use xlink:href="#m6a4feb9fec" x="294.377006" y="117.104897" style="fill: #6366f1; stroke: #6366f1"/>
    </g>
   </g>
   <g id="line2d_16">
    <path d="M 58.722343 174.045504 
L 88.179176 173.003907 
L 117.636009 183.072673 
L 147.092842 168.837522 
L 176.549674 164.671136 
L 206.006507 154.60237 
L 235.46334 140.714417 
L 264.920173 123.007277 
L 294.377006 104.952939 
" clip-path="url(#p24f140ee8b)" style="fill: none; stroke: #0ea5e9; stroke-width: 1.8; stroke-linecap: square"/>
    <defs>
     <path id="m712e3e25c5" d="M -2 2 
L 2 2 
L 2 -2 
L -2 -2 
z
" style="stroke: #0ea5e9; stroke-linejoin: miter"/>
    </defs>
    <g clip-path="url(#p24f140ee8b)">
     <use xlink:href="#m712e3e25c5" x="58.722343" y="174.045504" style="fill: #0ea5e9; stroke: #0ea5e9; stroke-linejoin: miter"/>
     <use xlink:href="#m712e3e25c5" x="88.179176" y="173.003907" style="fill: #0ea5e9; stroke: #0ea5e9; stroke-linejoin: miter"/>
     <use xlink:href="#m712e3e25c5" x="117.636009" y="183.072673" style="fill: #0ea5e9; stroke: #0ea5e9; stroke-linejoin: miter"/>
     <use xlink:href="#m712e3e25c5" x="147.092842" y="168.837522" style="fill: #0ea5e9; stroke: #0ea5e9; stroke-linejoin: miter"/>
     <use xlink:href="#m712e3e25c5" x="176.549674" y="164.671136" style="fill: #0ea5e9; stroke: #0ea5e9; stroke-linejoin: miter"/>
     <use xlink:href="#m712e3e25c5" x="206.006507" y="154.60237" style="fill: #0ea5e9; stroke: #0ea5e9; stroke-linejoin: miter"/>
     <use xlink:href="#m712e3e25c5" x="235.46334" y="140.714417" style="fill: #0ea5e9; stroke: #0ea5e9; stroke-linejoin: miter"/>
     <use xlink:href="#m712e3e25c5" x="264.920173" y="123.007277" style="fill: #0ea5e9; stroke: #0ea5e9; stroke-linejoin: miter"/>
     <use xlink:href="#m712e3e25c5" x="294.377006" y="104.952939" style="fill: #0ea5e9; stroke: #0ea5e9; stroke-linejoin: miter"/>
    </g>
   </g>
   <g id="line2d_17">
    <path d="M 58.722343 223.347736 
L 294.377006 56.692303 
" clip-path="url(#p24f140ee8b)" style="fill: none; stroke-dasharray: 1,1.65; stroke-dashoffset: 0; stroke: #cbd5e1"/>
   </g>
   <g id="patch_3">
    <path d="M 46.939609 231.680508 
L 46.939609 48.359531 
" style="fill: none; stroke: #000000; stroke-width: 0.8; stroke-linejoin: miter; stroke-linecap: square"/>
   </g>
   <g id="patch_4">
    <path d="M 46.939609 231.680508 
L 306.15974 231.680508 
" style="fill: none; stroke: #000000; stroke-width: 0.8; stroke-linejoin: miter; stroke-linecap: square"/>
   </g>
   <g id="text_17">
    <!-- Content -->
    <g transform="translate(157.287643 42.359531) scale(0.11 -0.11)">
     <defs>
      <path id="ArialUnicodeMS-52" d="M 1778 3391 
Q 2450 3391 2892 2953 
Q 3334 2516 3334 1709 
Q 3334 731 2856 326 
Q 2378 -78 1778 -78 
Q 1150 -78 687 337 
Q 225 753 225 1656 
Q 225 2531 672 2961 
Q 1119 3391 1778 3391 
z
M 1778 384 
Q 2259 384 2509 740 
Q 2759 1097 2759 1678 
Q 2759 2300 2476 2615 
Q 2194 2931 1778 2931 
Q 1350 2931 1075 2611 
Q 800 2291 800 1656 
Q 800 1025 1079 704 
Q 1359 384 1778 384 
z
" transform="scale(0.015625)"/>
      <path id="ArialUnicodeMS-51" d="M 3138 0 
L 2572 0 
L 2572 2016 
Q 2572 2525 2389 2715 
Q 2206 2906 1881 2906 
Q 1631 2906 1407 2784 
Q 1184 2663 1090 2441 
Q 997 2219 997 1813 
L 997 0 
L 434 0 
L 434 3316 
L 941 3316 
L 941 2847 
L 953 2847 
Q 1131 3119 1392 3255 
Q 1653 3391 1997 3391 
Q 2259 3391 2515 3297 
Q 2772 3203 2917 3015 
Q 3063 2828 3100 2615 
Q 3138 2403 3138 2041 
L 3138 0 
z
" transform="scale(0.015625)"/>
      <path id="ArialUnicodeMS-57" d="M 1722 6 
Q 1472 -44 1300 -44 
Q 931 -44 762 86 
Q 594 216 556 416 
Q 519 616 519 972 
L 519 2881 
L 109 2881 
L 109 3316 
L 519 3316 
L 519 4141 
L 1081 4481 
L 1081 3316 
L 1644 3316 
L 1644 2881 
L 1081 2881 
L 1081 941 
Q 1081 691 1132 586 
Q 1184 481 1394 481 
Q 1516 481 1644 506 
L 1722 6 
z
" transform="scale(0.015625)"/>
      <path id="ArialUnicodeMS-48" d="M 3309 1516 
L 825 1516 
Q 859 966 1139 675 
Q 1419 384 1838 384 
Q 2159 384 2378 554 
Q 2597 725 2713 1069 
L 3291 997 
Q 3150 478 2775 200 
Q 2400 -78 1838 -78 
Q 1091 -78 670 380 
Q 250 838 250 1631 
Q 250 2416 658 2903 
Q 1066 3391 1806 3391 
Q 2169 3391 2505 3231 
Q 2841 3072 3075 2689 
Q 3309 2306 3309 1516 
z
M 2731 1978 
Q 2697 2484 2417 2707 
Q 2138 2931 1806 2931 
Q 1409 2931 1153 2665 
Q 897 2400 856 1978 
L 2731 1978 
z
" transform="scale(0.015625)"/>
     </defs>
     <use xlink:href="#ArialUnicodeMS-26"/>
     <use xlink:href="#ArialUnicodeMS-52" transform="translate(72.21875 0)"/>
     <use xlink:href="#ArialUnicodeMS-51" transform="translate(127.828125 0)"/>
     <use xlink:href="#ArialUnicodeMS-57" transform="translate(183.4375 0)"/>
     <use xlink:href="#ArialUnicodeMS-48" transform="translate(211.21875 0)"/>
     <use xlink:href="#ArialUnicodeMS-51" transform="translate(266.828125 0)"/>
     <use xlink:href="#ArialUnicodeMS-57" transform="translate(322.4375 0)"/>
    </g>
   </g>
   <g id="legend_1">
    <g id="line2d_18">
     <path d="M 54.139609 58.58375 
L 62.139609 58.58375 
L 70.139609 58.58375 
" style="fill: none; stroke: #6366f1; stroke-width: 1.8; stroke-linecap: square"/>
     <g>
      <use xlink:href="#m6a4feb9fec" x="62.139609" y="58.58375" style="fill: #6366f1; stroke: #6366f1"/>
     </g>
    </g>
    <g id="text_18">
     <!-- gpt-5.6-luna (fast) -->
     <g transform="translate(76.539609 61.38375) scale(0.08 -0.08)">
      <defs>
       <path id="ArialUnicodeMS-4a" d="M 3144 447 
Q 3144 -259 3003 -607 
Q 2863 -956 2503 -1150 
Q 2144 -1344 1644 -1344 
Q 1081 -1344 706 -1094 
Q 331 -844 331 -275 
L 878 -359 
Q 909 -622 1098 -753 
Q 1288 -884 1638 -884 
Q 2075 -884 2278 -706 
Q 2481 -528 2526 -272 
Q 2572 -16 2572 434 
Q 2206 0 1650 0 
Q 1003 0 611 478 
Q 219 956 219 1684 
Q 219 2416 600 2903 
Q 981 3391 1656 3391 
Q 2244 3391 2613 2919 
L 2625 2919 
L 2625 3316 
L 3144 3316 
L 3144 447 
z
M 1703 459 
Q 2063 459 2341 745 
Q 2619 1031 2619 1703 
Q 2619 2297 2353 2614 
Q 2088 2931 1697 2931 
Q 1297 2931 1045 2606 
Q 794 2281 794 1716 
Q 794 1063 1058 761 
Q 1322 459 1703 459 
z
" transform="scale(0.015625)"/>
       <path id="ArialUnicodeMS-53" d="M 959 2888 
Q 1275 3391 1906 3391 
Q 2559 3391 2937 2917 
Q 3316 2444 3316 1684 
Q 3316 875 2897 398 
Q 2478 -78 1869 -78 
Q 1334 -78 1013 347 
L 997 347 
L 997 -1275 
L 434 -1275 
L 434 3316 
L 947 3316 
L 947 2888 
L 959 2888 
z
M 1831 384 
Q 2225 384 2483 711 
Q 2741 1038 2741 1684 
Q 2741 2294 2492 2622 
Q 2244 2950 1856 2950 
Q 1456 2950 1198 2584 
Q 941 2219 941 1638 
Q 941 1022 1187 703 
Q 1434 384 1831 384 
z
" transform="scale(0.015625)"/>
       <path id="ArialUnicodeMS-10" d="M 1925 1375 
L 206 1375 
L 206 1941 
L 1925 1941 
L 1925 1375 
z
" transform="scale(0.015625)"/>
       <path id="ArialUnicodeMS-19" d="M 838 2363 
Q 1225 2969 1941 2969 
Q 2503 2969 2897 2553 
Q 3291 2138 3291 1491 
Q 3291 838 2898 380 
Q 2506 -78 1856 -78 
Q 1197 -78 733 409 
Q 269 897 269 2144 
Q 269 3369 689 3986 
Q 1109 4603 1906 4603 
Q 2422 4603 2778 4315 
Q 3134 4028 3213 3463 
L 2650 3413 
Q 2497 4141 1875 4141 
Q 1444 4141 1134 3712 
Q 825 3284 825 2363 
L 838 2363 
z
M 1844 384 
Q 2231 384 2472 696 
Q 2713 1009 2713 1453 
Q 2713 1897 2472 2187 
Q 2231 2478 1825 2478 
Q 1453 2478 1184 2204 
Q 916 1931 916 1484 
Q 916 1028 1180 706 
Q 1444 384 1844 384 
z
" transform="scale(0.015625)"/>
       <path id="ArialUnicodeMS-4f" d="M 991 0 
L 428 0 
L 428 4581 
L 991 4581 
L 991 0 
z
" transform="scale(0.015625)"/>
       <path id="ArialUnicodeMS-58" d="M 3116 0 
L 2613 0 
L 2613 488 
L 2597 488 
Q 2216 -78 1556 -78 
Q 1209 -78 914 83 
Q 619 244 520 526 
Q 422 809 422 1259 
L 422 3316 
L 984 3316 
L 984 1478 
Q 984 1038 1026 847 
Q 1069 656 1247 532 
Q 1425 409 1672 409 
Q 1991 409 2272 629 
Q 2553 850 2553 1544 
L 2553 3316 
L 3116 3316 
L 3116 0 
z
" transform="scale(0.015625)"/>
       <path id="ArialUnicodeMS-44" d="M 3303 0 
L 2713 0 
Q 2631 156 2597 409 
Q 2031 -78 1375 -78 
Q 850 -78 547 184 
Q 244 447 244 878 
Q 244 1291 536 1558 
Q 828 1825 1550 1913 
L 2075 1991 
Q 2369 2038 2559 2106 
Q 2559 2359 2543 2464 
Q 2528 2569 2451 2681 
Q 2375 2794 2206 2862 
Q 2038 2931 1753 2931 
Q 1391 2931 1180 2797 
Q 969 2663 891 2297 
L 341 2369 
Q 431 2878 806 3134 
Q 1181 3391 1838 3391 
Q 2434 3391 2714 3214 
Q 2994 3038 3058 2788 
Q 3122 2538 3122 2144 
L 3122 1388 
Q 3122 697 3148 461 
Q 3175 225 3303 0 
z
M 2559 1459 
L 2559 1663 
Q 2119 1516 1481 1430 
Q 844 1344 844 891 
Q 844 663 1016 514 
Q 1188 366 1509 366 
Q 1925 366 2242 614 
Q 2559 863 2559 1459 
z
" transform="scale(0.015625)"/>
       <path id="ArialUnicodeMS-b" d="M 1900 -1344 
L 1497 -1344 
Q 978 -681 681 103 
Q 384 888 384 1656 
Q 384 2528 700 3275 
Q 1016 4022 1497 4659 
L 1900 4659 
Q 1344 3747 1155 3059 
Q 966 2372 966 1663 
Q 966 153 1900 -1344 
z
" transform="scale(0.015625)"/>
       <path id="ArialUnicodeMS-49" d="M 1991 4603 
L 1906 4109 
Q 1738 4141 1575 4141 
Q 1372 4141 1242 4055 
Q 1113 3969 1113 3628 
L 1113 3316 
L 1753 3316 
L 1753 2881 
L 1113 2881 
L 1113 0 
L 550 0 
L 550 2881 
L 50 2881 
L 50 3316 
L 550 3316 
L 550 3675 
Q 550 3925 597 4128 
Q 644 4331 845 4495 
Q 1047 4659 1466 4659 
Q 1716 4659 1991 4603 
z
" transform="scale(0.015625)"/>
       <path id="ArialUnicodeMS-56" d="M 2278 2388 
Q 2241 2659 2058 2795 
Q 1875 2931 1550 2931 
Q 1228 2931 1029 2822 
Q 831 2713 831 2503 
Q 831 2306 989 2222 
Q 1147 2138 1613 2016 
Q 2138 1881 2398 1778 
Q 2659 1675 2804 1489 
Q 2950 1303 2950 972 
Q 2950 528 2587 225 
Q 2225 -78 1619 -78 
Q 988 -78 633 189 
Q 278 456 197 991 
L 756 1075 
Q 800 728 1014 556 
Q 1228 384 1613 384 
Q 1981 384 2178 539 
Q 2375 694 2375 916 
Q 2375 1066 2284 1156 
Q 2194 1247 2058 1292 
Q 1922 1338 1447 1453 
Q 741 1622 514 1862 
Q 288 2103 288 2438 
Q 288 2853 619 3122 
Q 950 3391 1509 3391 
Q 2103 3391 2433 3158 
Q 2763 2925 2828 2463 
L 2278 2388 
z
" transform="scale(0.015625)"/>
       <path id="ArialUnicodeMS-c" d="M 634 4659 
Q 1153 3997 1450 3212 
Q 1747 2428 1747 1656 
Q 1747 788 1431 41 
Q 1116 -706 634 -1344 
L 231 -1344 
Q 788 -431 977 255 
Q 1166 941 1166 1650 
Q 1166 3163 231 4659 
L 634 4659 
z
" transform="scale(0.015625)"/>
      </defs>
      <use xlink:href="#ArialUnicodeMS-4a"/>
      <use xlink:href="#ArialUnicodeMS-53" transform="translate(55.609375 0)"/>
      <use xlink:href="#ArialUnicodeMS-57" transform="translate(111.21875 0)"/>
      <use xlink:href="#ArialUnicodeMS-10" transform="translate(139 0)"/>
      <use xlink:href="#ArialUnicodeMS-18" transform="translate(172.296875 0)"/>
      <use xlink:href="#ArialUnicodeMS-11" transform="translate(227.90625 0)"/>
      <use xlink:href="#ArialUnicodeMS-19" transform="translate(255.6875 0)"/>
      <use xlink:href="#ArialUnicodeMS-10" transform="translate(311.296875 0)"/>
      <use xlink:href="#ArialUnicodeMS-4f" transform="translate(344.59375 0)"/>
      <use xlink:href="#ArialUnicodeMS-58" transform="translate(366.8125 0)"/>
      <use xlink:href="#ArialUnicodeMS-51" transform="translate(422.421875 0)"/>
      <use xlink:href="#ArialUnicodeMS-44" transform="translate(478.03125 0)"/>
      <use xlink:href="#ArialUnicodeMS-3" transform="translate(533.640625 0)"/>
      <use xlink:href="#ArialUnicodeMS-b" transform="translate(561.421875 0)"/>
      <use xlink:href="#ArialUnicodeMS-49" transform="translate(594.71875 0)"/>
      <use xlink:href="#ArialUnicodeMS-44" transform="translate(622.5 0)"/>
      <use xlink:href="#ArialUnicodeMS-56" transform="translate(678.109375 0)"/>
      <use xlink:href="#ArialUnicodeMS-57" transform="translate(728.109375 0)"/>
      <use xlink:href="#ArialUnicodeMS-c" transform="translate(755.890625 0)"/>
     </g>
    </g>
    <g id="line2d_19">
     <path d="M 54.139609 70.087969 
L 62.139609 70.087969 
L 70.139609 70.087969 
" style="fill: none; stroke: #0ea5e9; stroke-width: 1.8; stroke-linecap: square"/>
     <g>
      <use xlink:href="#m712e3e25c5" x="62.139609" y="70.087969" style="fill: #0ea5e9; stroke: #0ea5e9; stroke-linejoin: miter"/>
     </g>
    </g>
    <g id="text_19">
     <!-- gpt-5.6-terra (standard) -->
     <g transform="translate(76.539609 72.887969) scale(0.08 -0.08)">
      <defs>
       <path id="ArialUnicodeMS-55" d="M 2216 3213 
L 2022 2694 
Q 1813 2816 1613 2816 
Q 1297 2816 1134 2533 
Q 972 2250 972 1741 
L 972 0 
L 409 0 
L 409 3316 
L 922 3316 
L 922 2816 
L 934 2816 
Q 1203 3391 1638 3391 
Q 1925 3391 2216 3213 
z
" transform="scale(0.015625)"/>
       <path id="ArialUnicodeMS-47" d="M 3109 0 
L 2584 0 
L 2584 422 
L 2572 422 
Q 2269 -78 1656 -78 
Q 1047 -78 639 405 
Q 231 888 231 1656 
Q 231 2459 615 2925 
Q 1000 3391 1631 3391 
Q 2225 3391 2534 2938 
L 2547 2938 
L 2547 4581 
L 3109 4581 
L 3109 0 
z
M 1716 384 
Q 2084 384 2340 687 
Q 2597 991 2597 1606 
Q 2597 2213 2362 2572 
Q 2128 2931 1691 2931 
Q 1253 2931 1029 2579 
Q 806 2228 806 1656 
Q 806 1244 926 958 
Q 1047 672 1262 528 
Q 1478 384 1716 384 
z
" transform="scale(0.015625)"/>
      </defs>
      <use xlink:href="#ArialUnicodeMS-4a"/>
      <use xlink:href="#ArialUnicodeMS-53" transform="translate(55.609375 0)"/>
      <use xlink:href="#ArialUnicodeMS-57" transform="translate(111.21875 0)"/>
      <use xlink:href="#ArialUnicodeMS-10" transform="translate(139 0)"/>
      <use xlink:href="#ArialUnicodeMS-18" transform="translate(172.296875 0)"/>
      <use xlink:href="#ArialUnicodeMS-11" transform="translate(227.90625 0)"/>
      <use xlink:href="#ArialUnicodeMS-19" transform="translate(255.6875 0)"/>
      <use xlink:href="#ArialUnicodeMS-10" transform="translate(311.296875 0)"/>
      <use xlink:href="#ArialUnicodeMS-57" transform="translate(344.59375 0)"/>
      <use xlink:href="#ArialUnicodeMS-48" transform="translate(372.375 0)"/>
      <use xlink:href="#ArialUnicodeMS-55" transform="translate(427.984375 0)"/>
      <use xlink:href="#ArialUnicodeMS-55" transform="translate(461.28125 0)"/>
      <use xlink:href="#ArialUnicodeMS-44" transform="translate(494.578125 0)"/>
      <use xlink:href="#ArialUnicodeMS-3" transform="translate(550.1875 0)"/>
      <use xlink:href="#ArialUnicodeMS-b" transform="translate(577.96875 0)"/>
      <use xlink:href="#ArialUnicodeMS-56" transform="translate(611.265625 0)"/>
      <use xlink:href="#ArialUnicodeMS-57" transform="translate(661.265625 0)"/>
      <use xlink:href="#ArialUnicodeMS-44" transform="translate(689.046875 0)"/>
      <use xlink:href="#ArialUnicodeMS-51" transform="translate(744.65625 0)"/>
      <use xlink:href="#ArialUnicodeMS-47" transform="translate(800.265625 0)"/>
      <use xlink:href="#ArialUnicodeMS-44" transform="translate(855.875 0)"/>
      <use xlink:href="#ArialUnicodeMS-55" transform="translate(911.484375 0)"/>
      <use xlink:href="#ArialUnicodeMS-47" transform="translate(944.78125 0)"/>
      <use xlink:href="#ArialUnicodeMS-c" transform="translate(1000.390625 0)"/>
     </g>
    </g>
   </g>
  </g>
  <g id="axes_2">
   <g id="patch_5">
    <path d="M 320.45974 231.680508 
L 579.67987 231.680508 
L 579.67987 48.359531 
L 320.45974 48.359531 
z
" style="fill: #ffffff"/>
   </g>
   <g id="FillBetweenPolyCollection_3">
    <defs>
     <path id="m5b9ae74ce5" d="M 332.242473 -88.791333 
L 332.242473 -76.639374 
L 361.699306 -76.986573 
L 391.156139 -80.111362 
L 420.612972 -86.360941 
L 450.069805 -83.062552 
L 479.526638 -92.61052 
L 508.983471 -101.46409 
L 538.440304 -117.608835 
L 567.897137 -135.315975 
L 567.897137 -152.675916 
L 567.897137 -152.675916 
L 538.440304 -134.100779 
L 508.983471 -117.435235 
L 479.526638 -107.713668 
L 450.069805 -95.56171 
L 420.612972 -100.079634 
L 391.156139 -92.089722 
L 361.699306 -88.791333 
L 332.242473 -88.791333 
z
" style="stroke: #6366f1; stroke-opacity: 0.15"/>
    </defs>
    <g clip-path="url(#pd3ba9430b8)">
     <use xlink:href="#m5b9ae74ce5" x="0" y="273.6" style="fill: #6366f1; fill-opacity: 0.15; stroke: #6366f1; stroke-opacity: 0.15"/>
    </g>
   </g>
   <g id="FillBetweenPolyCollection_4">
    <defs>
     <path id="m7305b12a6c" d="M 332.242473 -118.129633 
L 332.242473 -107.36647 
L 361.699306 -108.408066 
L 391.156139 -115.352042 
L 420.612972 -116.393639 
L 450.069805 -120.034887 
L 479.526638 -125.768007 
L 508.983471 -136.70477 
L 538.440304 -145.206801 
L 567.897137 -163.439079 
L 567.897137 -175.243839 
L 567.897137 -175.243839 
L 538.440304 -158.231097 
L 508.983471 -149.377527 
L 479.526638 -137.746366 
L 450.069805 -130.107992 
L 420.612972 -126.636004 
L 391.156139 -125.594408 
L 361.699306 -120.737964 
L 332.242473 -118.129633 
z
" style="stroke: #0ea5e9; stroke-opacity: 0.15"/>
    </defs>
    <g clip-path="url(#pd3ba9430b8)">
     <use xlink:href="#m7305b12a6c" x="0" y="273.6" style="fill: #0ea5e9; fill-opacity: 0.15; stroke: #0ea5e9; stroke-opacity: 0.15"/>
    </g>
   </g>
   <g id="matplotlib.axis_3">
    <g id="xtick_6">
     <g id="line2d_20">
      <g>
       <use xlink:href="#m68485f2201" x="332.242473" y="231.680508" style="stroke: #000000; stroke-width: 0.8"/>
      </g>
     </g>
     <g id="text_20">
      <!-- 1 -->
      <g transform="translate(329.462004 245.960781) scale(0.1 -0.1)">
       <use xlink:href="#ArialUnicodeMS-14"/>
      </g>
     </g>
    </g>
    <g id="xtick_7">
     <g id="line2d_21">
      <g>
       <use xlink:href="#m68485f2201" x="391.156139" y="231.680508" style="stroke: #000000; stroke-width: 0.8"/>
      </g>
     </g>
     <g id="text_21">
      <!-- 2 -->
      <g transform="translate(388.37567 245.960781) scale(0.1 -0.1)">
       <use xlink:href="#ArialUnicodeMS-15"/>
      </g>
     </g>
    </g>
    <g id="xtick_8">
     <g id="line2d_22">
      <g>
       <use xlink:href="#m68485f2201" x="450.069805" y="231.680508" style="stroke: #000000; stroke-width: 0.8"/>
      </g>
     </g>
     <g id="text_22">
      <!-- 3 -->
      <g transform="translate(447.289336 245.960781) scale(0.1 -0.1)">
       <use xlink:href="#ArialUnicodeMS-16"/>
      </g>
     </g>
    </g>
    <g id="xtick_9">
     <g id="line2d_23">
      <g>
       <use xlink:href="#m68485f2201" x="508.983471" y="231.680508" style="stroke: #000000; stroke-width: 0.8"/>
      </g>
     </g>
     <g id="text_23">
      <!-- 4 -->
      <g transform="translate(506.203002 245.960781) scale(0.1 -0.1)">
       <use xlink:href="#ArialUnicodeMS-17"/>
      </g>
     </g>
    </g>
    <g id="xtick_10">
     <g id="line2d_24">
      <g>
       <use xlink:href="#m68485f2201" x="567.897137" y="231.680508" style="stroke: #000000; stroke-width: 0.8"/>
      </g>
     </g>
     <g id="text_24">
      <!-- 5 -->
      <g transform="translate(565.116668 245.960781) scale(0.1 -0.1)">
       <use xlink:href="#ArialUnicodeMS-18"/>
      </g>
     </g>
    </g>
    <g id="text_25">
     <!-- CASE 预设等级 -->
     <g transform="translate(415.064336 260.440078) scale(0.1 -0.1)">
      <use xlink:href="#ArialUnicodeMS-26"/>
      <use xlink:href="#ArialUnicodeMS-24" transform="translate(72.21875 0)"/>
      <use xlink:href="#ArialUnicodeMS-36" transform="translate(138.921875 0)"/>
      <use xlink:href="#ArialUnicodeMS-28" transform="translate(205.625 0)"/>
      <use xlink:href="#ArialUnicodeMS-3" transform="translate(272.328125 0)"/>
      <use xlink:href="#ArialUnicodeMS-6b13" transform="translate(300.109375 0)"/>
      <use xlink:href="#ArialUnicodeMS-5e4d" transform="translate(400.109375 0)"/>
      <use xlink:href="#ArialUnicodeMS-4dd8" transform="translate(500.109375 0)"/>
      <use xlink:href="#ArialUnicodeMS-5136" transform="translate(600.109375 0)"/>
     </g>
    </g>
   </g>
   <g id="matplotlib.axis_4">
    <g id="ytick_10">
     <g id="line2d_25">
      <g>
       <use xlink:href="#m27e7ffa50e" x="320.45974" y="223.347736" style="stroke: #000000; stroke-width: 0.8"/>
      </g>
     </g>
    </g>
    <g id="ytick_11">
     <g id="line2d_26">
      <g>
       <use xlink:href="#m27e7ffa50e" x="320.45974" y="202.515807" style="stroke: #000000; stroke-width: 0.8"/>
      </g>
     </g>
    </g>
    <g id="ytick_12">
     <g id="line2d_27">
      <g>
       <use xlink:href="#m27e7ffa50e" x="320.45974" y="181.683878" style="stroke: #000000; stroke-width: 0.8"/>
      </g>
     </g>
    </g>
    <g id="ytick_13">
     <g id="line2d_28">
      <g>
       <use xlink:href="#m27e7ffa50e" x="320.45974" y="160.851949" style="stroke: #000000; stroke-width: 0.8"/>
      </g>
     </g>
    </g>
    <g id="ytick_14">
     <g id="line2d_29">
      <g>
       <use xlink:href="#m27e7ffa50e" x="320.45974" y="140.02002" style="stroke: #000000; stroke-width: 0.8"/>
      </g>
     </g>
    </g>
    <g id="ytick_15">
     <g id="line2d_30">
      <g>
       <use xlink:href="#m27e7ffa50e" x="320.45974" y="119.18809" style="stroke: #000000; stroke-width: 0.8"/>
      </g>
     </g>
    </g>
    <g id="ytick_16">
     <g id="line2d_31">
      <g>
       <use xlink:href="#m27e7ffa50e" x="320.45974" y="98.356161" style="stroke: #000000; stroke-width: 0.8"/>
      </g>
     </g>
    </g>
    <g id="ytick_17">
     <g id="line2d_32">
      <g>
       <use xlink:href="#m27e7ffa50e" x="320.45974" y="77.524232" style="stroke: #000000; stroke-width: 0.8"/>
      </g>
     </g>
    </g>
    <g id="ytick_18">
     <g id="line2d_33">
      <g>
       <use xlink:href="#m27e7ffa50e" x="320.45974" y="56.692303" style="stroke: #000000; stroke-width: 0.8"/>
      </g>
     </g>
    </g>
   </g>
   <g id="line2d_34">
    <path d="M 332.242473 191.058246 
L 361.699306 190.884647 
L 391.156139 187.586258 
L 420.612972 180.468682 
L 450.069805 184.461468 
L 479.526638 173.698305 
L 508.983471 164.150337 
L 538.440304 147.831993 
L 567.897137 129.604055 
" clip-path="url(#pd3ba9430b8)" style="fill: none; stroke: #6366f1; stroke-width: 1.8; stroke-linecap: square"/>
    <g clip-path="url(#pd3ba9430b8)">
     <use xlink:href="#m6a4feb9fec" x="332.242473" y="191.058246" style="fill: #6366f1; stroke: #6366f1"/>
     <use xlink:href="#m6a4feb9fec" x="361.699306" y="190.884647" style="fill: #6366f1; stroke: #6366f1"/>
     <use xlink:href="#m6a4feb9fec" x="391.156139" y="187.586258" style="fill: #6366f1; stroke: #6366f1"/>
     <use xlink:href="#m6a4feb9fec" x="420.612972" y="180.468682" style="fill: #6366f1; stroke: #6366f1"/>
     <use xlink:href="#m6a4feb9fec" x="450.069805" y="184.461468" style="fill: #6366f1; stroke: #6366f1"/>
     <use xlink:href="#m6a4feb9fec" x="479.526638" y="173.698305" style="fill: #6366f1; stroke: #6366f1"/>
     <use xlink:href="#m6a4feb9fec" x="508.983471" y="164.150337" style="fill: #6366f1; stroke: #6366f1"/>
     <use xlink:href="#m6a4feb9fec" x="538.440304" y="147.831993" style="fill: #6366f1; stroke: #6366f1"/>
     <use xlink:href="#m6a4feb9fec" x="567.897137" y="129.604055" style="fill: #6366f1; stroke: #6366f1"/>
    </g>
   </g>
   <g id="line2d_35">
    <path d="M 332.242473 161.025548 
L 361.699306 159.115955 
L 391.156139 153.213575 
L 420.612972 152.171978 
L 450.069805 148.69999 
L 479.526638 141.929613 
L 508.983471 130.645651 
L 538.440304 121.965681 
L 567.897137 104.258541 
" clip-path="url(#pd3ba9430b8)" style="fill: none; stroke: #0ea5e9; stroke-width: 1.8; stroke-linecap: square"/>
    <g clip-path="url(#pd3ba9430b8)">
     <use xlink:href="#m712e3e25c5" x="332.242473" y="161.025548" style="fill: #0ea5e9; stroke: #0ea5e9; stroke-linejoin: miter"/>
     <use xlink:href="#m712e3e25c5" x="361.699306" y="159.115955" style="fill: #0ea5e9; stroke: #0ea5e9; stroke-linejoin: miter"/>
     <use xlink:href="#m712e3e25c5" x="391.156139" y="153.213575" style="fill: #0ea5e9; stroke: #0ea5e9; stroke-linejoin: miter"/>
     <use xlink:href="#m712e3e25c5" x="420.612972" y="152.171978" style="fill: #0ea5e9; stroke: #0ea5e9; stroke-linejoin: miter"/>
     <use xlink:href="#m712e3e25c5" x="450.069805" y="148.69999" style="fill: #0ea5e9; stroke: #0ea5e9; stroke-linejoin: miter"/>
     <use xlink:href="#m712e3e25c5" x="479.526638" y="141.929613" style="fill: #0ea5e9; stroke: #0ea5e9; stroke-linejoin: miter"/>
     <use xlink:href="#m712e3e25c5" x="508.983471" y="130.645651" style="fill: #0ea5e9; stroke: #0ea5e9; stroke-linejoin: miter"/>
     <use xlink:href="#m712e3e25c5" x="538.440304" y="121.965681" style="fill: #0ea5e9; stroke: #0ea5e9; stroke-linejoin: miter"/>
     <use xlink:href="#m712e3e25c5" x="567.897137" y="104.258541" style="fill: #0ea5e9; stroke: #0ea5e9; stroke-linejoin: miter"/>
    </g>
   </g>
   <g id="line2d_36">
    <path d="M 332.242473 223.347736 
L 567.897137 56.692303 
" clip-path="url(#pd3ba9430b8)" style="fill: none; stroke-dasharray: 1,1.65; stroke-dashoffset: 0; stroke: #cbd5e1"/>
   </g>
   <g id="patch_6">
    <path d="M 320.45974 231.680508 
L 320.45974 48.359531 
" style="fill: none; stroke: #000000; stroke-width: 0.8; stroke-linejoin: miter; stroke-linecap: square"/>
   </g>
   <g id="patch_7">
    <path d="M 320.45974 231.680508 
L 579.67987 231.680508 
" style="fill: none; stroke: #000000; stroke-width: 0.8; stroke-linejoin: miter; stroke-linecap: square"/>
   </g>
   <g id="text_26">
    <!-- Organization -->
    <g transform="translate(418.887383 42.359531) scale(0.11 -0.11)">
     <defs>
      <path id="ArialUnicodeMS-32" d="M 2497 4659 
Q 3459 4659 4071 4006 
Q 4684 3353 4684 2284 
Q 4684 1219 4068 570 
Q 3453 -78 2497 -78 
Q 1506 -78 903 594 
Q 300 1266 300 2234 
Q 300 3363 911 4011 
Q 1522 4659 2497 4659 
z
M 2491 441 
Q 3188 441 3620 928 
Q 4053 1416 4056 2284 
Q 4056 3178 3614 3659 
Q 3172 4141 2503 4141 
Q 1816 4141 1372 3669 
Q 928 3197 928 2222 
Q 928 1425 1362 933 
Q 1797 441 2491 441 
z
" transform="scale(0.015625)"/>
      <path id="ArialUnicodeMS-4c" d="M 991 0 
L 428 0 
L 428 3316 
L 991 3316 
L 991 0 
z
M 991 3944 
L 428 3944 
L 428 4581 
L 991 4581 
L 991 3944 
z
" transform="scale(0.015625)"/>
      <path id="ArialUnicodeMS-5d" d="M 3066 0 
L 128 0 
L 128 453 
L 2241 2875 
Q 1869 2853 1606 2853 
L 250 2853 
L 250 3316 
L 2963 3316 
L 2963 2950 
L 1166 850 
Q 1113 784 891 544 
Q 838 494 819 459 
Q 1141 488 1528 488 
L 3066 488 
L 3066 0 
z
" transform="scale(0.015625)"/>
     </defs>
     <use xlink:href="#ArialUnicodeMS-32"/>
     <use xlink:href="#ArialUnicodeMS-55" transform="translate(77.78125 0)"/>
     <use xlink:href="#ArialUnicodeMS-4a" transform="translate(111.078125 0)"/>
     <use xlink:href="#ArialUnicodeMS-44" transform="translate(166.6875 0)"/>
     <use xlink:href="#ArialUnicodeMS-51" transform="translate(222.296875 0)"/>
     <use xlink:href="#ArialUnicodeMS-4c" transform="translate(277.90625 0)"/>
     <use xlink:href="#ArialUnicodeMS-5d" transform="translate(300.125 0)"/>
     <use xlink:href="#ArialUnicodeMS-44" transform="translate(350.125 0)"/>
     <use xlink:href="#ArialUnicodeMS-57" transform="translate(405.734375 0)"/>
     <use xlink:href="#ArialUnicodeMS-4c" transform="translate(433.515625 0)"/>
     <use xlink:href="#ArialUnicodeMS-52" transform="translate(455.734375 0)"/>
     <use xlink:href="#ArialUnicodeMS-51" transform="translate(511.34375 0)"/>
    </g>
   </g>
  </g>
  <g id="axes_3">
   <g id="patch_8">
    <path d="M 593.97987 231.680508 
L 853.2 231.680508 
L 853.2 48.359531 
L 593.97987 48.359531 
z
" style="fill: #ffffff"/>
   </g>
   <g id="FillBetweenPolyCollection_5">
    <defs>
     <path id="me8ab6b6065" d="M 605.762603 -69.696518 
L 605.762603 -59.611382 
L 635.219436 -63.02022 
L 664.676269 -65.875594 
L 694.133102 -65.007684 
L 723.589935 -64.455852 
L 753.046768 -66.664963 
L 782.503601 -71.381687 
L 811.960434 -86.401309 
L 841.417267 -120.297017 
L 841.417267 -141.391954 
L 841.417267 -141.391954 
L 811.960434 -105.172804 
L 782.503601 -91.916122 
L 753.046768 -80.850117 
L 723.589935 -78.562856 
L 694.133102 -75.859011 
L 664.676269 -74.922161 
L 635.219436 -75.090979 
L 605.762603 -69.696518 
z
" style="stroke: #6366f1; stroke-opacity: 0.15"/>
    </defs>
    <g clip-path="url(#p07887dcbfe)">
     <use xlink:href="#me8ab6b6065" x="0" y="273.6" style="fill: #6366f1; fill-opacity: 0.15; stroke: #6366f1; stroke-opacity: 0.15"/>
    </g>
   </g>
   <g id="FillBetweenPolyCollection_6">
    <defs>
     <path id="mfd483613e6" d="M 605.762603 -85.220889 
L 605.762603 -72.820187 
L 635.219436 -78.135 
L 664.676269 -79.764163 
L 694.133102 -77.780058 
L 723.589935 -89.401438 
L 753.046768 -100.067747 
L 782.503601 -104.626716 
L 811.960434 -116.862819 
L 841.417267 -140.1583 
L 841.417267 -159.730958 
L 841.417267 -159.730958 
L 811.960434 -130.740173 
L 782.503601 -120.016313 
L 753.046768 -109.276063 
L 723.589935 -99.207297 
L 694.133102 -93.304917 
L 664.676269 -95.496891 
L 635.219436 -88.359451 
L 605.762603 -85.220889 
z
" style="stroke: #0ea5e9; stroke-opacity: 0.15"/>
    </defs>
    <g clip-path="url(#p07887dcbfe)">
     <use xlink:href="#mfd483613e6" x="0" y="273.6" style="fill: #0ea5e9; fill-opacity: 0.15; stroke: #0ea5e9; stroke-opacity: 0.15"/>
    </g>
   </g>
   <g id="matplotlib.axis_5">
    <g id="xtick_11">
     <g id="line2d_37">
      <g>
       <use xlink:href="#m68485f2201" x="605.762603" y="231.680508" style="stroke: #000000; stroke-width: 0.8"/>
      </g>
     </g>
     <g id="text_27">
      <!-- 1 -->
      <g transform="translate(602.982134 245.960781) scale(0.1 -0.1)">
       <use xlink:href="#ArialUnicodeMS-14"/>
      </g>
     </g>
    </g>
    <g id="xtick_12">
     <g id="line2d_38">
      <g>
       <use xlink:href="#m68485f2201" x="664.676269" y="231.680508" style="stroke: #000000; stroke-width: 0.8"/>
      </g>
     </g>
     <g id="text_28">
      <!-- 2 -->
      <g transform="translate(661.8958 245.960781) scale(0.1 -0.1)">
       <use xlink:href="#ArialUnicodeMS-15"/>
      </g>
     </g>
    </g>
    <g id="xtick_13">
     <g id="line2d_39">
      <g>
       <use xlink:href="#m68485f2201" x="723.589935" y="231.680508" style="stroke: #000000; stroke-width: 0.8"/>
      </g>
     </g>
     <g id="text_29">
      <!-- 3 -->
      <g transform="translate(720.809466 245.960781) scale(0.1 -0.1)">
       <use xlink:href="#ArialUnicodeMS-16"/>
      </g>
     </g>
    </g>
    <g id="xtick_14">
     <g id="line2d_40">
      <g>
       <use xlink:href="#m68485f2201" x="782.503601" y="231.680508" style="stroke: #000000; stroke-width: 0.8"/>
      </g>
     </g>
     <g id="text_30">
      <!-- 4 -->
      <g transform="translate(779.723132 245.960781) scale(0.1 -0.1)">
       <use xlink:href="#ArialUnicodeMS-17"/>
      </g>
     </g>
    </g>
    <g id="xtick_15">
     <g id="line2d_41">
      <g>
       <use xlink:href="#m68485f2201" x="841.417267" y="231.680508" style="stroke: #000000; stroke-width: 0.8"/>
      </g>
     </g>
     <g id="text_31">
      <!-- 5 -->
      <g transform="translate(838.636798 245.960781) scale(0.1 -0.1)">
       <use xlink:href="#ArialUnicodeMS-18"/>
      </g>
     </g>
    </g>
    <g id="text_32">
     <!-- CASE 预设等级 -->
     <g transform="translate(688.584466 260.440078) scale(0.1 -0.1)">
      <use xlink:href="#ArialUnicodeMS-26"/>
      <use xlink:href="#ArialUnicodeMS-24" transform="translate(72.21875 0)"/>
      <use xlink:href="#ArialUnicodeMS-36" transform="translate(138.921875 0)"/>
      <use xlink:href="#ArialUnicodeMS-28" transform="translate(205.625 0)"/>
      <use xlink:href="#ArialUnicodeMS-3" transform="translate(272.328125 0)"/>
      <use xlink:href="#ArialUnicodeMS-6b13" transform="translate(300.109375 0)"/>
      <use xlink:href="#ArialUnicodeMS-5e4d" transform="translate(400.109375 0)"/>
      <use xlink:href="#ArialUnicodeMS-4dd8" transform="translate(500.109375 0)"/>
      <use xlink:href="#ArialUnicodeMS-5136" transform="translate(600.109375 0)"/>
     </g>
    </g>
   </g>
   <g id="matplotlib.axis_6">
    <g id="ytick_19">
     <g id="line2d_42">
      <g>
       <use xlink:href="#m27e7ffa50e" x="593.97987" y="223.347736" style="stroke: #000000; stroke-width: 0.8"/>
      </g>
     </g>
    </g>
    <g id="ytick_20">
     <g id="line2d_43">
      <g>
       <use xlink:href="#m27e7ffa50e" x="593.97987" y="202.515807" style="stroke: #000000; stroke-width: 0.8"/>
      </g>
     </g>
    </g>
    <g id="ytick_21">
     <g id="line2d_44">
      <g>
       <use xlink:href="#m27e7ffa50e" x="593.97987" y="181.683878" style="stroke: #000000; stroke-width: 0.8"/>
      </g>
     </g>
    </g>
    <g id="ytick_22">
     <g id="line2d_45">
      <g>
       <use xlink:href="#m27e7ffa50e" x="593.97987" y="160.851949" style="stroke: #000000; stroke-width: 0.8"/>
      </g>
     </g>
    </g>
    <g id="ytick_23">
     <g id="line2d_46">
      <g>
       <use xlink:href="#m27e7ffa50e" x="593.97987" y="140.02002" style="stroke: #000000; stroke-width: 0.8"/>
      </g>
     </g>
    </g>
    <g id="ytick_24">
     <g id="line2d_47">
      <g>
       <use xlink:href="#m27e7ffa50e" x="593.97987" y="119.18809" style="stroke: #000000; stroke-width: 0.8"/>
      </g>
     </g>
    </g>
    <g id="ytick_25">
     <g id="line2d_48">
      <g>
       <use xlink:href="#m27e7ffa50e" x="593.97987" y="98.356161" style="stroke: #000000; stroke-width: 0.8"/>
      </g>
     </g>
    </g>
    <g id="ytick_26">
     <g id="line2d_49">
      <g>
       <use xlink:href="#m27e7ffa50e" x="593.97987" y="77.524232" style="stroke: #000000; stroke-width: 0.8"/>
      </g>
     </g>
    </g>
    <g id="ytick_27">
     <g id="line2d_50">
      <g>
       <use xlink:href="#m27e7ffa50e" x="593.97987" y="56.692303" style="stroke: #000000; stroke-width: 0.8"/>
      </g>
     </g>
    </g>
   </g>
   <g id="line2d_51">
    <path d="M 605.762603 210.296407 
L 635.219436 204.523704 
L 664.676269 205.276665 
L 694.133102 204.523704 
L 723.589935 204.272717 
L 753.046768 200.256923 
L 782.503601 196.492117 
L 811.960434 180.428942 
L 841.417267 147.298645 
" clip-path="url(#p07887dcbfe)" style="fill: none; stroke: #6366f1; stroke-width: 1.8; stroke-linecap: square"/>
    <g clip-path="url(#p07887dcbfe)">
     <use xlink:href="#m6a4feb9fec" x="605.762603" y="210.296407" style="fill: #6366f1; stroke: #6366f1"/>
     <use xlink:href="#m6a4feb9fec" x="635.219436" y="204.523704" style="fill: #6366f1; stroke: #6366f1"/>
     <use xlink:href="#m6a4feb9fec" x="664.676269" y="205.276665" style="fill: #6366f1; stroke: #6366f1"/>
     <use xlink:href="#m6a4feb9fec" x="694.133102" y="204.523704" style="fill: #6366f1; stroke: #6366f1"/>
     <use xlink:href="#m6a4feb9fec" x="723.589935" y="204.272717" style="fill: #6366f1; stroke: #6366f1"/>
     <use xlink:href="#m6a4feb9fec" x="753.046768" y="200.256923" style="fill: #6366f1; stroke: #6366f1"/>
     <use xlink:href="#m6a4feb9fec" x="782.503601" y="196.492117" style="fill: #6366f1; stroke: #6366f1"/>
     <use xlink:href="#m6a4feb9fec" x="811.960434" y="180.428942" style="fill: #6366f1; stroke: #6366f1"/>
     <use xlink:href="#m6a4feb9fec" x="841.417267" y="147.298645" style="fill: #6366f1; stroke: #6366f1"/>
    </g>
   </g>
   <g id="line2d_52">
    <path d="M 605.762603 197.496065 
L 635.219436 191.472375 
L 664.676269 187.205594 
L 694.133102 189.966452 
L 723.589935 180.679929 
L 753.046768 170.891433 
L 782.503601 164.114781 
L 811.960434 152.0674 
L 841.417267 127.721652 
" clip-path="url(#p07887dcbfe)" style="fill: none; stroke: #0ea5e9; stroke-width: 1.8; stroke-linecap: square"/>
    <g clip-path="url(#p07887dcbfe)">
     <use xlink:href="#m712e3e25c5" x="605.762603" y="197.496065" style="fill: #0ea5e9; stroke: #0ea5e9; stroke-linejoin: miter"/>
     <use xlink:href="#m712e3e25c5" x="635.219436" y="191.472375" style="fill: #0ea5e9; stroke: #0ea5e9; stroke-linejoin: miter"/>
     <use xlink:href="#m712e3e25c5" x="664.676269" y="187.205594" style="fill: #0ea5e9; stroke: #0ea5e9; stroke-linejoin: miter"/>
     <use xlink:href="#m712e3e25c5" x="694.133102" y="189.966452" style="fill: #0ea5e9; stroke: #0ea5e9; stroke-linejoin: miter"/>
     <use xlink:href="#m712e3e25c5" x="723.589935" y="180.679929" style="fill: #0ea5e9; stroke: #0ea5e9; stroke-linejoin: miter"/>
     <use xlink:href="#m712e3e25c5" x="753.046768" y="170.891433" style="fill: #0ea5e9; stroke: #0ea5e9; stroke-linejoin: miter"/>
     <use xlink:href="#m712e3e25c5" x="782.503601" y="164.114781" style="fill: #0ea5e9; stroke: #0ea5e9; stroke-linejoin: miter"/>
     <use xlink:href="#m712e3e25c5" x="811.960434" y="152.0674" style="fill: #0ea5e9; stroke: #0ea5e9; stroke-linejoin: miter"/>
     <use xlink:href="#m712e3e25c5" x="841.417267" y="127.721652" style="fill: #0ea5e9; stroke: #0ea5e9; stroke-linejoin: miter"/>
    </g>
   </g>
   <g id="line2d_53">
    <path d="M 605.762603 223.347736 
L 841.417267 56.692303 
" clip-path="url(#p07887dcbfe)" style="fill: none; stroke-dasharray: 1,1.65; stroke-dashoffset: 0; stroke: #cbd5e1"/>
   </g>
   <g id="patch_9">
    <path d="M 593.97987 231.680508 
L 593.97987 48.359531 
" style="fill: none; stroke: #000000; stroke-width: 0.8; stroke-linejoin: miter; stroke-linecap: square"/>
   </g>
   <g id="patch_10">
    <path d="M 593.97987 231.680508 
L 853.2 231.680508 
" style="fill: none; stroke: #000000; stroke-width: 0.8; stroke-linejoin: miter; stroke-linecap: square"/>
   </g>
   <g id="text_33">
    <!-- Language -->
    <g transform="translate(699.12181 42.359531) scale(0.11 -0.11)">
     <defs>
      <path id="ArialUnicodeMS-2f" d="M 3347 0 
L 481 0 
L 481 4581 
L 1088 4581 
L 1088 544 
L 3347 544 
L 3347 0 
z
" transform="scale(0.015625)"/>
     </defs>
     <use xlink:href="#ArialUnicodeMS-2f"/>
     <use xlink:href="#ArialUnicodeMS-44" transform="translate(55.609375 0)"/>
     <use xlink:href="#ArialUnicodeMS-51" transform="translate(111.21875 0)"/>
     <use xlink:href="#ArialUnicodeMS-4a" transform="translate(166.828125 0)"/>
     <use xlink:href="#ArialUnicodeMS-58" transform="translate(222.4375 0)"/>
     <use xlink:href="#ArialUnicodeMS-44" transform="translate(278.046875 0)"/>
     <use xlink:href="#ArialUnicodeMS-4a" transform="translate(333.65625 0)"/>
     <use xlink:href="#ArialUnicodeMS-48" transform="translate(389.265625 0)"/>
    </g>
   </g>
  </g>
  <g id="text_34">
   <!-- r23 正式实验：预测分数随 CASE 预设等级的变化（趋势 ± 95% CI） -->
   <g transform="translate(249.475313 4.583625) scale(0.12 -0.12)">
    <defs>
     <path id="ArialUnicodeMS-3df2" d="M 5888 -31 
L 641 -31 
L 641 434 
L 1428 434 
L 1428 3328 
L 1913 3328 
L 1913 434 
L 3091 434 
L 3091 4372 
L 819 4372 
L 819 4838 
L 5656 4838 
L 5656 4372 
L 3597 4372 
L 3597 2778 
L 5331 2778 
L 5331 2309 
L 3597 2309 
L 3597 434 
L 5888 434 
L 5888 -31 
z
" transform="scale(0.015625)"/>
     <path id="ArialUnicodeMS-319e" d="M 6041 903 
Q 5941 256 5798 -70 
Q 5656 -397 5394 -397 
Q 4959 -397 4350 570 
Q 3741 1538 3513 3634 
L 475 3634 
L 475 4103 
L 3469 4103 
Q 3441 4381 3391 5319 
L 3897 5338 
Q 3934 4459 3975 4103 
L 5819 4103 
L 5819 3634 
L 4025 3634 
Q 4091 2678 4333 1870 
Q 4575 1063 4892 614 
Q 5209 166 5325 166 
Q 5472 166 5550 1113 
L 6041 903 
z
M 5509 4513 
L 5166 4147 
Q 4781 4616 4038 4800 
L 4422 5166 
Q 5066 5025 5509 4513 
z
M 3675 800 
L 756 63 
L 575 519 
L 1881 838 
L 1881 2369 
L 863 2369 
L 863 2834 
L 3359 2834 
L 3359 2369 
L 2369 2369 
L 2369 972 
L 3641 1269 
L 3675 800 
z
" transform="scale(0.015625)"/>
     <path id="ArialUnicodeMS-2e2d" d="M 5791 3513 
L 5306 3513 
L 5306 4103 
L 1063 4103 
L 1063 3513 
L 575 3513 
L 575 4569 
L 3144 4569 
Q 2956 4859 2547 5094 
L 2913 5325 
Q 3375 5066 3591 4666 
L 3384 4581 
L 3384 4569 
L 5791 4569 
L 5791 3513 
z
M 3122 3066 
L 2741 2803 
Q 2453 3331 1856 3731 
L 2181 4006 
Q 2759 3669 3122 3066 
z
M 5894 1684 
L 3634 1684 
Q 3063 131 831 -366 
L 469 72 
Q 2528 400 3109 1684 
L 469 1684 
L 469 2150 
L 3256 2150 
Q 3366 2500 3366 3022 
L 3366 3903 
L 3847 3903 
Q 3847 2459 3756 2150 
L 5894 2150 
L 5894 1684 
z
M 2450 2478 
L 2100 2188 
Q 1769 2722 1191 3084 
L 1503 3372 
Q 2100 3031 2450 2478 
z
M 5947 -13 
L 5613 -391 
Q 4900 422 3566 1006 
L 3816 1363 
Q 5075 866 5947 -13 
z
" transform="scale(0.015625)"/>
     <path id="ArialUnicodeMS-6d1b" d="M 6034 2994 
L 5638 2650 
Q 5191 2994 5106 3072 
L 5100 2869 
L 3034 2869 
L 3034 3047 
Q 2850 2884 2472 2694 
L 2163 3128 
Q 3228 3622 3750 4806 
L 3988 5344 
L 4441 5178 
Q 4406 5022 4306 4825 
Q 5116 3509 6034 2994 
z
M 4838 3334 
Q 4313 3991 4116 4453 
Q 3781 3797 3328 3334 
L 4838 3334 
z
M 2444 2606 
Q 2253 166 2075 -118 
Q 1897 -403 1494 -403 
Q 1288 -403 916 -325 
Q 900 -266 869 -97 
Q 838 72 794 184 
Q 913 169 1152 116 
Q 1391 63 1519 63 
Q 1628 63 1695 238 
Q 1763 413 1959 2138 
L 525 2138 
L 525 2606 
Q 744 3528 744 4397 
L 1228 4219 
Q 1209 3416 1025 2606 
L 1569 2606 
Q 1722 3563 1722 4563 
L 403 4563 
L 403 5031 
L 2181 5031 
Q 2181 4103 2022 2606 
L 2444 2606 
z
M 4366 1275 
L 3903 1056 
Q 3866 1653 3372 2591 
L 3769 2766 
Q 4247 1969 4366 1275 
z
M 5900 -109 
L 2322 -109 
L 2322 359 
L 4347 359 
Q 4788 1172 4984 2619 
L 5459 2425 
Q 5219 1147 4850 359 
L 5900 359 
L 5900 -109 
z
M 3616 769 
L 3128 506 
Q 3078 1359 2522 2247 
L 2956 2431 
Q 3481 1738 3616 769 
z
M 1747 1269 
Q 1484 1119 494 691 
L 213 1178 
Q 691 1291 1747 1753 
L 1747 1269 
z
" transform="scale(0.015625)"/>
     <path id="ArialUnicodeMS-19f6" d="M 3516 2675 
L 2875 2675 
L 2875 3316 
L 3516 3316 
L 3516 2675 
z
M 3516 0 
L 2875 0 
L 2875 641 
L 3516 641 
L 3516 0 
z
" transform="scale(0.015625)"/>
     <path id="ArialUnicodeMS-37ff" d="M 6138 19 
L 5806 -378 
Q 5031 194 4697 716 
Q 4344 144 3328 -441 
L 2981 -50 
Q 3966 434 4403 1153 
Q 4038 1834 3866 2753 
Q 3678 2356 3353 1919 
L 2950 2203 
Q 3838 3172 3963 5253 
L 4409 5125 
Q 4341 4384 4269 4006 
L 5984 4006 
L 5984 3547 
L 5619 3541 
L 5594 3341 
Q 5441 2113 4978 1191 
Q 5281 672 6138 19 
z
M 5166 3541 
L 4172 3541 
Q 4297 2419 4691 1650 
Q 5038 2513 5166 3541 
z
M 3438 3653 
L 2209 3653 
L 2209 2338 
L 1919 2338 
Q 1900 2269 1753 1931 
L 3225 1931 
L 3225 1472 
L 2913 1472 
Q 2763 991 2503 666 
Q 2947 353 3103 184 
L 2747 -172 
Q 2463 138 2150 313 
Q 1322 -225 563 -428 
L 269 6 
Q 1106 163 1684 563 
Q 1291 756 703 884 
L 1038 1472 
L 403 1472 
L 403 1931 
L 1259 1931 
Q 1328 2056 1466 2553 
L 1747 2484 
L 1747 3653 
L 1716 3653 
Q 1413 2881 678 2456 
L 378 2803 
Q 938 3091 1241 3653 
L 403 3653 
L 403 4122 
L 1747 4122 
L 1747 5228 
L 2209 5228 
L 2209 4122 
L 3438 4122 
L 3438 3653 
z
M 2406 1472 
L 1538 1472 
Q 1422 1241 1369 1153 
Q 1388 1159 2069 884 
Q 2219 1031 2406 1472 
z
M 1625 4441 
L 1288 4159 
Q 1022 4547 575 4813 
L 878 5075 
Q 1394 4844 1625 4441 
z
M 3384 4844 
Q 3097 4409 2669 4172 
L 2322 4481 
Q 2806 4759 3047 5069 
L 3384 4844 
z
M 3303 2888 
L 2944 2578 
Q 2706 3025 2291 3297 
L 2584 3566 
Q 2988 3359 3303 2888 
z
" transform="scale(0.015625)"/>
     <path id="ArialUnicodeMS-691e" d="M 5844 4172 
L 4331 4172 
Q 4284 4009 4178 3809 
L 5594 3809 
L 5594 1094 
Q 5594 922 5487 803 
Q 5381 684 5216 684 
L 4647 684 
Q 4516 1028 4475 1178 
L 4991 1125 
Q 5106 1125 5106 1281 
L 5106 1644 
L 4025 1644 
L 4025 622 
L 3541 622 
L 3541 2772 
L 3391 2606 
L 3028 2975 
Q 3519 3409 3822 4172 
L 3059 4172 
L 3059 4641 
L 3975 4641 
Q 4084 5066 4122 5281 
L 4550 5106 
Q 4541 4884 4469 4641 
L 5844 4641 
L 5844 4172 
z
M 5106 2950 
L 5106 3341 
L 4025 3341 
L 4025 2950 
L 5106 2950 
z
M 5106 2088 
L 5106 2484 
L 4025 2484 
L 4025 2088 
L 5106 2088 
z
M 6028 341 
Q 5903 -6 5856 -178 
L 4091 -159 
Q 3359 -159 2853 500 
Q 2609 175 1997 -263 
L 1678 141 
Q 2278 606 2528 884 
L 2528 2503 
L 2181 2491 
Q 2328 2128 2328 1856 
Q 2328 1472 2122 1298 
Q 1916 1125 1684 1125 
Q 1556 1125 1428 1153 
L 1269 1684 
L 1638 1625 
Q 1875 1656 1875 1919 
Q 1875 2188 1203 3263 
L 1747 4556 
L 1119 4556 
L 1119 -409 
L 634 -409 
L 634 5025 
L 2278 5025 
L 2278 4609 
Q 1972 3703 1784 3291 
Q 1991 2953 2094 2669 
L 2100 2950 
L 2988 2950 
L 2988 1013 
Q 3281 606 3682 442 
Q 4084 278 4856 278 
Q 5313 278 6028 341 
z
M 3256 3553 
L 2834 3263 
Q 2625 3909 2272 4206 
L 2625 4475 
Q 3028 4138 3256 3553 
z
" transform="scale(0.015625)"/>
     <path id="ArialUnicodeMS-4913" d="M 5644 4281 
Q 5619 1694 5395 673 
Q 5172 -347 4606 -347 
Q 4350 -347 3609 -134 
L 3525 403 
Q 4247 134 4531 134 
Q 4806 134 4976 1142 
Q 5147 2150 5159 3841 
L 3794 3841 
Q 3550 3166 3053 2497 
L 2719 2713 
L 2719 -147 
L 2216 -147 
L 2216 269 
L 1153 269 
L 1153 -250 
L 647 -250 
L 647 4184 
L 1234 4184 
Q 1494 4644 1625 5313 
L 2088 5125 
Q 1903 4444 1741 4184 
L 2719 4184 
L 2719 2881 
Q 3431 3888 3681 5363 
L 4191 5247 
Q 4106 4869 3916 4281 
L 5644 4281 
z
M 2216 2484 
L 2216 3719 
L 1153 3719 
L 1153 2484 
L 2216 2484 
z
M 2216 738 
L 2216 2016 
L 1153 2016 
L 1153 738 
L 2216 738 
z
M 4775 1369 
L 4313 1166 
Q 4034 1925 3444 2669 
L 3841 2931 
Q 4484 2191 4775 1369 
z
" transform="scale(0.015625)"/>
     <path id="ArialUnicodeMS-2667" d="M 5813 4050 
L 3938 4050 
L 3938 2350 
L 3469 2350 
L 3481 4050 
L 2719 4050 
L 2719 2350 
L 2266 2350 
L 2266 4050 
L 372 4050 
L 372 4494 
L 3009 4494 
Q 2856 4744 2400 5031 
L 2694 5331 
Q 3203 5041 3513 4634 
L 3341 4513 
L 3341 4494 
L 5813 4494 
L 5813 4050 
z
M 1947 3519 
Q 1559 2866 775 2059 
L 416 2425 
Q 1016 2938 1594 3809 
L 1947 3519 
z
M 5838 2484 
L 5409 2209 
Q 5081 2878 4306 3488 
L 4653 3756 
Q 5550 3047 5838 2484 
z
M 5978 78 
L 5691 -366 
Q 5153 -297 4609 -142 
Q 4066 13 3188 481 
Q 2103 -150 519 -378 
Q 438 -222 244 63 
Q 1741 225 2753 775 
Q 2309 1069 1819 1784 
L 1350 1784 
L 1350 2253 
L 4603 2253 
L 4603 1791 
Q 4038 1091 3597 775 
Q 4497 263 5978 78 
z
M 3975 1784 
L 2413 1784 
Q 2641 1425 3188 1044 
Q 3763 1481 3975 1784 
z
" transform="scale(0.015625)"/>
     <path id="ArialUnicodeMS-25a5" d="M 2431 5147 
Q 2322 4731 2081 4159 
L 1844 3603 
L 1844 -366 
L 1350 -366 
L 1350 2834 
Q 1006 2356 653 2075 
L 306 2444 
Q 1350 3319 2003 5350 
L 2431 5147 
z
M 6081 1325 
Q 5994 419 5786 114 
Q 5578 -191 5203 -191 
L 3872 -191 
Q 3534 -191 3339 -12 
Q 3144 166 3144 469 
L 3144 5178 
L 3628 5178 
L 3628 2853 
Q 4478 3413 5288 4488 
L 5709 4197 
Q 4800 2984 3628 2272 
L 3628 550 
Q 3628 288 3981 288 
L 5113 288 
Q 5553 288 5581 1503 
L 6081 1325 
z
" transform="scale(0.015625)"/>
     <path id="ArialUnicodeMS-19e4" d="M 3963 -1344 
L 3560 -1344 
Q 3041 -681 2744 103 
Q 2447 888 2447 1656 
Q 2447 2528 2763 3275 
Q 3079 4022 3560 4659 
L 3963 4659 
Q 3407 3747 3218 3059 
Q 3029 2372 3029 1663 
Q 3029 153 3963 -1344 
z
" transform="scale(0.015625)"/>
     <path id="ArialUnicodeMS-601a" d="M 5588 422 
L 5100 422 
L 5100 684 
L 2881 684 
L 2881 1147 
L 5100 1147 
L 5100 1766 
L 3181 1766 
L 3181 2247 
L 5100 2247 
L 5100 2809 
L 3059 2809 
L 3059 3272 
L 4341 3272 
Q 4541 3550 4763 4013 
L 3788 4013 
Q 3544 3606 3150 3347 
L 2797 3706 
Q 3575 4272 3775 5275 
L 4206 5069 
Q 4178 4922 4112 4720 
Q 4047 4519 4038 4475 
L 5344 4475 
L 5344 4103 
Q 5009 3466 4897 3272 
L 5588 3272 
L 5588 422 
z
M 6003 281 
L 5831 -197 
L 4856 -225 
L 3097 -225 
Q 2422 -225 1978 -36 
Q 1534 153 1113 622 
Q 928 47 575 -459 
L 166 -122 
Q 581 450 681 917 
Q 781 1384 813 2363 
L 1269 2284 
Q 1269 1788 1209 1191 
Q 1459 869 1581 763 
L 1581 2675 
L 391 2675 
L 391 3156 
L 1394 3156 
L 1394 3891 
L 519 3891 
L 519 4372 
L 1394 4372 
L 1394 5247 
L 1881 5247 
L 1881 4372 
L 2784 4372 
L 2784 3891 
L 1881 3891 
L 1881 3156 
L 2906 3156 
L 2906 2675 
L 2069 2675 
L 2069 1931 
L 2906 1931 
L 2906 1472 
L 2069 1472 
L 2069 447 
Q 2497 238 3059 238 
L 4750 238 
L 6003 281 
z
" transform="scale(0.015625)"/>
     <path id="ArialUnicodeMS-254e" d="M 6088 2772 
Q 5925 2363 5792 2206 
Q 5659 2050 5516 2050 
Q 5228 2050 5017 2598 
Q 4806 3147 4806 4134 
L 4213 4134 
Q 4172 3519 4025 3219 
Q 4241 3056 4563 2753 
L 4231 2431 
Q 3809 2825 3794 2828 
Q 3459 2425 2619 2100 
L 2322 2497 
Q 3125 2731 3391 3109 
Q 3103 3331 2834 3425 
L 3091 3788 
Q 3234 3734 3406 3628 
Q 3578 3522 3628 3500 
Q 3725 3688 3750 4134 
L 2869 4134 
L 2869 4603 
L 3750 4603 
L 3750 5331 
L 4213 5331 
L 4213 4603 
L 5269 4603 
Q 5284 3666 5318 3314 
Q 5353 2963 5538 2619 
Q 5616 2834 5672 3084 
L 6088 2772 
z
M 2694 3450 
L 2034 3278 
L 2034 2566 
Q 2034 2369 1921 2228 
Q 1809 2088 1625 2088 
L 1069 2088 
L 916 2559 
L 1428 2534 
Q 1463 2534 1506 2570 
Q 1550 2606 1550 2644 
L 1550 3163 
L 647 2950 
L 372 3397 
Q 981 3500 1550 3641 
L 1550 4238 
L 609 4238 
L 609 4703 
L 1550 4703 
L 1550 5331 
L 2034 5331 
L 2034 4703 
L 2656 4703 
L 2656 4238 
L 2034 4238 
L 2034 3731 
L 2694 3897 
L 2694 3450 
z
M 5434 1825 
Q 5434 1313 5343 689 
Q 5253 66 5083 -139 
Q 4913 -344 4634 -344 
Q 4488 -344 3928 -263 
L 3769 250 
L 4231 134 
Q 4403 128 4519 128 
Q 4666 128 4692 137 
Q 4719 147 4776 278 
Q 4834 409 4863 672 
L 4941 1356 
L 3450 1356 
Q 3038 -91 781 -366 
L 569 116 
Q 2350 209 2950 1356 
L 728 1356 
L 728 1825 
L 3041 1825 
L 3078 2181 
L 3553 2100 
L 3506 1825 
L 5434 1825 
z
" transform="scale(0.015625)"/>
     <path id="ArialUnicodeMS-73" d="M 3384 2131 
L 2131 2131 
L 2131 878 
L 1606 878 
L 1606 2131 
L 353 2131 
L 353 2656 
L 1606 2656 
L 1606 3909 
L 2131 3909 
L 2131 2656 
L 3384 2656 
L 3384 2131 
z
M 3384 0 
L 353 0 
L 353 525 
L 3384 525 
L 3384 0 
z
" transform="scale(0.015625)"/>
     <path id="ArialUnicodeMS-1c" d="M 2713 2156 
Q 2547 1888 2258 1722 
Q 1969 1556 1631 1556 
Q 1066 1556 670 1970 
Q 275 2384 275 3053 
Q 275 3734 678 4168 
Q 1081 4603 1716 4603 
Q 2353 4603 2818 4106 
Q 3284 3609 3284 2388 
Q 3284 1147 2859 534 
Q 2434 -78 1644 -78 
Q 1128 -78 781 205 
Q 434 488 359 1063 
L 897 1106 
Q 1025 384 1656 384 
Q 2175 384 2450 857 
Q 2725 1331 2725 2156 
L 2713 2156 
z
M 1766 2047 
Q 2178 2047 2420 2339 
Q 2663 2631 2663 3078 
Q 2663 3531 2414 3836 
Q 2166 4141 1778 4141 
Q 1388 4141 1119 3817 
Q 850 3494 850 3034 
Q 850 2600 1114 2323 
Q 1378 2047 1766 2047 
z
" transform="scale(0.015625)"/>
     <path id="ArialUnicodeMS-8" d="M 4325 4659 
L 1838 -159 
L 1369 -159 
L 3872 4659 
L 4325 4659 
z
M 1428 4653 
Q 1856 4653 2137 4343 
Q 2419 4034 2419 3438 
Q 2419 2850 2131 2539 
Q 1844 2228 1434 2228 
Q 1009 2228 739 2540 
Q 469 2853 469 3475 
Q 469 3984 722 4318 
Q 975 4653 1428 4653 
z
M 1441 2619 
Q 1931 2619 1931 3463 
Q 1931 4269 1441 4269 
Q 953 4269 953 3419 
Q 953 2619 1441 2619 
z
M 4250 2253 
Q 4681 2253 4961 1943 
Q 5241 1634 5241 1038 
Q 5241 600 5087 328 
Q 4934 56 4709 -58 
Q 4484 -172 4256 -172 
Q 3831 -172 3561 140 
Q 3291 453 3291 1075 
Q 3291 1584 3544 1918 
Q 3797 2253 4250 2253 
z
M 4263 219 
Q 4756 219 4756 1063 
Q 4756 1869 4263 1869 
Q 3775 1869 3775 1019 
Q 3775 219 4263 219 
z
" transform="scale(0.015625)"/>
     <path id="ArialUnicodeMS-2c" d="M 1197 0 
L 588 0 
L 588 4581 
L 1197 4581 
L 1197 0 
z
" transform="scale(0.015625)"/>
     <path id="ArialUnicodeMS-19e5" d="M 2847 4659 
Q 3366 3997 3663 3212 
Q 3960 2428 3960 1656 
Q 3960 788 3644 41 
Q 3329 -706 2847 -1344 
L 2444 -1344 
Q 3001 -431 3190 255 
Q 3379 941 3379 1650 
Q 3379 3163 2444 4659 
L 2847 4659 
z
" transform="scale(0.015625)"/>
    </defs>
    <use xlink:href="#ArialUnicodeMS-55"/>
    <use xlink:href="#ArialUnicodeMS-15" transform="translate(33.296875 0)"/>
    <use xlink:href="#ArialUnicodeMS-16" transform="translate(88.90625 0)"/>
    <use xlink:href="#ArialUnicodeMS-3" transform="translate(144.515625 0)"/>
    <use xlink:href="#ArialUnicodeMS-3df2" transform="translate(172.296875 0)"/>
    <use xlink:href="#ArialUnicodeMS-319e" transform="translate(272.296875 0)"/>
    <use xlink:href="#ArialUnicodeMS-2e2d" transform="translate(372.296875 0)"/>
    <use xlink:href="#ArialUnicodeMS-6d1b" transform="translate(472.296875 0)"/>
    <use xlink:href="#ArialUnicodeMS-19f6" transform="translate(572.296875 0)"/>
    <use xlink:href="#ArialUnicodeMS-6b13" transform="translate(672.296875 0)"/>
    <use xlink:href="#ArialUnicodeMS-3fda" transform="translate(772.296875 0)"/>
    <use xlink:href="#ArialUnicodeMS-2495" transform="translate(872.296875 0)"/>
    <use xlink:href="#ArialUnicodeMS-37ff" transform="translate(972.296875 0)"/>
    <use xlink:href="#ArialUnicodeMS-691e" transform="translate(1072.296875 0)"/>
    <use xlink:href="#ArialUnicodeMS-3" transform="translate(1172.296875 0)"/>
    <use xlink:href="#ArialUnicodeMS-26" transform="translate(1200.078125 0)"/>
    <use xlink:href="#ArialUnicodeMS-24" transform="translate(1272.296875 0)"/>
    <use xlink:href="#ArialUnicodeMS-36" transform="translate(1339 0)"/>
    <use xlink:href="#ArialUnicodeMS-28" transform="translate(1405.703125 0)"/>
    <use xlink:href="#ArialUnicodeMS-3" transform="translate(1472.40625 0)"/>
    <use xlink:href="#ArialUnicodeMS-6b13" transform="translate(1500.1875 0)"/>
    <use xlink:href="#ArialUnicodeMS-5e4d" transform="translate(1600.1875 0)"/>
    <use xlink:href="#ArialUnicodeMS-4dd8" transform="translate(1700.1875 0)"/>
    <use xlink:href="#ArialUnicodeMS-5136" transform="translate(1800.1875 0)"/>
    <use xlink:href="#ArialUnicodeMS-4913" transform="translate(1900.1875 0)"/>
    <use xlink:href="#ArialUnicodeMS-2667" transform="translate(2000.1875 0)"/>
    <use xlink:href="#ArialUnicodeMS-25a5" transform="translate(2100.1875 0)"/>
    <use xlink:href="#ArialUnicodeMS-19e4" transform="translate(2200.1875 0)"/>
    <use xlink:href="#ArialUnicodeMS-601a" transform="translate(2300.1875 0)"/>
    <use xlink:href="#ArialUnicodeMS-254e" transform="translate(2400.1875 0)"/>
    <use xlink:href="#ArialUnicodeMS-3" transform="translate(2500.1875 0)"/>
    <use xlink:href="#ArialUnicodeMS-73" transform="translate(2527.96875 0)"/>
    <use xlink:href="#ArialUnicodeMS-3" transform="translate(2586.375 0)"/>
    <use xlink:href="#ArialUnicodeMS-1c" transform="translate(2614.15625 0)"/>
    <use xlink:href="#ArialUnicodeMS-18" transform="translate(2669.765625 0)"/>
    <use xlink:href="#ArialUnicodeMS-8" transform="translate(2725.375 0)"/>
    <use xlink:href="#ArialUnicodeMS-3" transform="translate(2814.296875 0)"/>
    <use xlink:href="#ArialUnicodeMS-26" transform="translate(2842.078125 0)"/>
    <use xlink:href="#ArialUnicodeMS-2c" transform="translate(2914.296875 0)"/>
    <use xlink:href="#ArialUnicodeMS-19e5" transform="translate(2942.078125 0)"/>
   </g>
  </g>
 </g>
 <defs>
  <clipPath id="p24f140ee8b">
   <rect x="46.939609" y="48.359531" width="259.22013" height="183.320977"/>
  </clipPath>
  <clipPath id="pd3ba9430b8">
   <rect x="320.45974" y="48.359531" width="259.22013" height="183.320977"/>
  </clipPath>
  <clipPath id="p07887dcbfe">
   <rect x="593.97987" y="48.359531" width="259.22013" height="183.320977"/>
  </clipPath>
 </defs>
</svg>
